<svg width="16" height="16" viewBox="0 0 16 16" fill="none" xmlns="http://www.w3.org/2000/svg">
    <g clip-path="url(#a)" fill="#fff">
        <path d="M15.69 12.723l-1.774-1.183-1.577-1.051a.699.699 0 0 0-.938.152l-.976 1.255a.695.695 0 0 1-.887.184c-.662-.369-1.445-.716-3.172-2.445-1.728-1.73-2.077-2.51-2.445-3.172a.695.695 0 0 1 .184-.888L5.359 4.6a.698.698 0 0 0 .153-.938l-1.02-1.529L3.279.311A.698.698 0 0 0 2.338.1L.936.94A1.712 1.712 0 0 0 .16 1.946c-.383 1.397-.46 4.479 4.478 9.417 4.939 4.94 8.02 4.862 9.417 4.478.423-.12.783-.398 1.006-.777l.84-1.401a.698.698 0 0 0-.21-.94z"/>
        <path d="M9.103 2.483a4.695 4.695 0 0 1 4.69 4.69.276.276 0 1 0 .552 0A5.247 5.247 0 0 0 9.103 1.93a.276.276 0 0 0 0 .552z"/>
        <path d="M9.103 4.138a3.038 3.038 0 0 1 3.035 3.034.276.276 0 1 0 .552 0 3.59 3.59 0 0 0-3.587-3.586.276.276 0 1 0 0 .552z"/>
        <path d="M9.103 5.793c.762 0 1.379.618 1.38 1.38a.276.276 0 1 0 .551 0 1.933 1.933 0 0 0-1.93-1.932.276.276 0 0 0 0 .552z"/>
    </g>
    <defs>
        <clipPath id="a">
            <path fill="#fff" d="M0 0h16v16H0z"/>
        </clipPath>
    </defs>
</svg>
