<svg width="50" height="50" viewBox="0 0 50 50" fill="none" xmlns="http://www.w3.org/2000/svg">
    <g clip-path="url(#a)" fill="#fff">
        <path d="M49.852 27.995c-.124-.248-.434-.372-.683-.434-1.426 0-13.702-.496-13.702-14.757a.82.82 0 0 0-.807-.806.82.82 0 0 0-.806.806c0 14.261-12.276 14.757-13.64 14.757a.704.704 0 0 0-.497.186c-.124.062-.186.186-.248.248a.92.92 0 0 0 0 .806c.124.248.434.434.744.434h.062c1.427 0 13.641.496 13.641 14.757a.82.82 0 0 0 .806.806.82.82 0 0 0 .806-.806c0-14.199 12.215-14.757 13.641-14.757.31 0 .559-.186.745-.434a.763.763 0 0 0-.063-.806zm-15.192 9.92c-1.798-5.89-6.2-8.432-9.672-9.548 3.472-1.116 7.874-3.658 9.672-9.549 1.799 5.89 6.2 8.433 9.673 9.55-3.472 1.115-7.874 3.657-9.673 9.548z"/>
        <path d="M24.43 11.874c.434 0 .806-.372.806-.868a.82.82 0 0 0-.806-.806c-.744 0-7.44-.248-7.44-8.06a.82.82 0 0 0-.807-.807.82.82 0 0 0-.806.806c0 7.813-6.696 8.06-7.44 8.06h-.062c-.434.063-.745.373-.745.807a.82.82 0 0 0 .807.806c.806 0 7.44.248 7.44 8.06a.82.82 0 0 0 .806.807c.372.062.744-.31.744-.744 0-7.813 6.697-8.061 7.44-8.061h.063zm-8.309 3.534c-.992-2.356-2.79-3.658-4.464-4.402 1.798-.744 3.472-2.17 4.464-4.402.992 2.356 2.79 3.658 4.464 4.402-1.798.744-3.472 2.17-4.464 4.402z"/>
        <path d="M17.3 38.164c-.745 0-7.441-.248-7.441-8.06a.82.82 0 0 0-.806-.807.82.82 0 0 0-.806.806c0 7.813-6.697 8.06-7.44 8.06H.743c-.434.063-.744.373-.744.807a.82.82 0 0 0 .806.806c.806 0 7.44.248 7.44 8.06a.82.82 0 0 0 .807.807c.372.124.744-.248.744-.745 0-7.812 6.696-8.06 7.44-8.06h.062c.434 0 .806-.372.806-.868a.82.82 0 0 0-.806-.806zm-8.31 5.27c-1.053-2.356-2.79-3.658-4.464-4.402 1.798-.744 3.473-2.17 4.465-4.402.992 2.356 2.79 3.658 4.464 4.402-1.798.744-3.472 2.17-4.464 4.402z"/>
    </g>
    <defs>
        <clipPath id="a">
            <path fill="#fff" d="M0 0h50v50H0z"/>
        </clipPath>
    </defs>
</svg>
