<?xml version="1.0"?>
<svg xmlns="http://www.w3.org/2000/svg" height="512px" viewBox="0 0 512 512" width="512px" class=""><g><path d="m25.601562 512h42.664063c7.242187-.023438 14.128906-3.125 18.945313-8.535156h214.015624c12.519532.007812 24.800782-3.441406 35.492188-9.957032l159.921875-97.355468c7.679687-4.683594 13.035156-12.382813 14.746094-21.214844 1.699219-8.558594-.234375-17.441406-5.34375-24.515625-.152344-.25-.316407-.492187-.496094-.726563-8.238281-10.996093-22.597656-15.46875-35.625-11.09375l-56.832031 18.945313c49.992187-49.050781 68.515625-121.855469 48.042968-188.832031-20.46875-66.976563-76.527343-116.988282-145.398437-129.707032v-13.40625c0-14.140624-11.460937-25.601562-25.601563-25.601562h-17.066406c-14.136718 0-25.601562 11.460938-25.601562 25.601562v13.40625c-56.324219 10.382813-104.816406 45.929688-131.679688 96.511719-26.859375 50.585938-29.144531 110.667969-6.199218 163.148438h-17.289063c-3.605469-10.191407-13.21875-17.023438-24.03125-17.066407h-42.664063c-14.140624 0-25.601562 11.460938-25.601562 25.597657v179.199219c0 14.140624 11.460938 25.601562 25.601562 25.601562zm238.933594-486.398438c0-4.714843 3.820313-8.535156 8.53125-8.535156h17.066406c4.714844 0 8.535157 3.820313 8.535157 8.535156v11.089844c-5.625-.511718-11.308594-.808594-17.066407-.808594-5.761718 0-11.445312.296876-17.066406.808594zm-153.601562 197.972657c.003906-83.855469 60.929687-155.285157 143.734375-168.515625 82.800781-13.234375 162.953125 35.648437 189.09375 115.324218 26.140625 79.675782-9.472657 166.539063-84.023438 204.929688l-47.734375 15.90625c-2.613281.871094-5.351562 1.316406-8.105468 1.316406h-4.898438c1.949219-5.382812 2.691406-11.121094 2.183594-16.820312 68.710937-8.726563 123.109375-62.304688 132.886718-130.875 9.773438-68.566406-27.492187-135.210938-91.023437-162.789063-63.535156-27.582031-137.667969-9.289062-181.082031 44.675781-43.414063 53.964844-45.402344 130.292969-4.859375 186.445313-8.394531-5.566406-17.695313-9.625-27.484375-11.996094-12.25-24.035156-18.652344-50.625-18.6875-77.601562zm88.558594 108.824219c-12.304688-9.269532-22.953126-20.554688-31.496094-33.375l7.023437-4.058594c2.660157-1.515625 4.308594-4.339844 4.316407-7.402344.003906-3.0625-1.628907-5.890625-4.285157-7.417969-2.65625-1.523437-5.921875-1.507812-8.566406.039063l-7.023437 4.054687c-8.136719-16.261719-12.933594-33.988281-14.113282-52.132812h8.253906c4.710938 0 8.53125-3.820313 8.53125-8.53125 0-4.714844-3.820312-8.535157-8.53125-8.535157h-8.101562c1.109375-18.132812 5.859375-35.859374 13.960938-52.121093l7.023437 4.046875c2.644531 1.546875 5.910156 1.5625 8.566406.035156 2.65625-1.523438 4.289063-4.355469 4.285157-7.417969-.007813-3.0625-1.65625-5.886719-4.316407-7.398437l-7.09375-4.085938c10.085938-15.128906 23.0625-28.109375 38.1875-38.195312l4.097657 7.082031c1.523437 2.640625 4.347656 4.269531 7.398437 4.265625 1.5.007812 2.972656-.386719 4.265625-1.144531 4.082031-2.355469 5.480469-7.574219 3.125-11.65625l-4.054688-7.011719c16.261719-8.105469 33.988282-12.851562 52.121094-13.960938v8.097657c0 4.710937 3.820313 8.53125 8.535156 8.53125 4.710938 0 8.53125-3.820313 8.53125-8.53125v-8.097657c18.136719 1.109376 35.867188 5.855469 52.128907 13.960938l-4.050781 7.011719c-2.355469 4.082031-.957032 9.300781 3.121093 11.65625 1.296875.757812 2.769531 1.152343 4.269531 1.144531 3.050782.003906 5.871094-1.625 7.398438-4.265625l4.09375-7.082031c15.125 10.085937 28.101562 23.066406 38.1875 38.195312l-7.089844 4.085938c-2.664062 1.511718-4.308594 4.335937-4.316406 7.398437s1.628906 5.894531 4.28125 7.417969c2.65625 1.527344 5.925781 1.511719 8.566406-.035156l7.023438-4.046875c8.101562 16.261719 12.847656 33.988281 13.953125 52.121093h-8.097657c-4.714843 0-8.535156 3.820313-8.535156 8.535157 0 4.710937 3.820313 8.53125 8.535156 8.53125h8.113282c-1.101563 18.144531-5.847656 35.878906-13.953125 52.148437l-7.046875-4.070312c-2.640625-1.546875-5.910156-1.5625-8.566406-.039063-2.65625 1.527344-4.289063 4.355469-4.28125 7.417969.003906 3.0625 1.652343 5.886719 4.3125 7.402344l7.015624 4.050781c-10.089843 15.097656-23.066406 28.050781-38.1875 38.109375l-4.019531-6.96875c-1.511719-2.664062-4.335937-4.308594-7.398437-4.316406-3.0625-.007813-5.890625 1.625-7.417969 4.28125-1.523437 2.65625-1.511719 5.925781.039063 8.566406l4.070312 7.050781c-14.523438 7.210938-30.222656 11.753907-46.355469 13.414063 0-.070313-.058593-.144532-.101562-.214844l-.765625-1.28125c-9.292969-15.378906-25.933594-24.800781-43.90625-24.855469h-44.644532c-2.34375-.015625-4.6875-.148437-7.015624-.402343zm-46.933594-1.46875c15.328125 12.230468 34.34375 18.902343 53.949218 18.9375h44.636719c11.976563.03125 23.070313 6.3125 29.261719 16.5625l.765625 1.273437c4.65625 7.765625 4.152344 17.582031-1.277344 24.832031h-51.839843c-16.851563-.019531-33.328126 4.972656-47.335938 14.335938l-6.253906 4.164062c-3.921875 2.613282-4.980469 7.914063-2.363282 11.835938 2.613282 3.917968 7.914063 4.976562 11.835938 2.363281l6.246094-4.164063c11.207031-7.492187 24.390625-11.484374 37.871094-11.46875h75.84375c.742187 0 1.46875-.136718 2.199218-.179687.171875 0 .316406.09375.496094.09375h.792969c1.195312-.113281 2.269531-.230469 3.472656-.445313h.121094c2.175781-.359374 4.320312-.886718 6.417969-1.578124l157.960937-52.660157c5.78125-1.992187 12.195313-.203125 16.109375 4.5.144531.246094.316406.484375.488281.722657 2.511719 3.347656 3.496094 7.601562 2.707031 11.714843-.789062 4.109375-3.28125 7.699219-6.855468 9.875l-159.957032 97.289063c-8.023437 4.882812-17.234374 7.464844-26.625 7.464844h-207.359374v-170.664063h15.359374c15.738282.019531 31.007813 5.378906 43.308594 15.195313zm-135.492188-23.730469c0-4.710938 3.820313-8.53125 8.535156-8.53125h42.664063c4.714844 0 8.535156 3.820312 8.535156 8.53125v179.199219c0 4.714843-3.820312 8.535156-8.535156 8.535156h-42.664063c-4.714843 0-8.535156-3.820313-8.535156-8.535156zm0 0" data-original="#000000" class="active-path" data-old_color="#000000" fill="#FFFFFF"/><path d="m281.601562 257.707031c15.515626-.058593 29.039063-10.574219 32.921876-25.601562h35.34375c4.710937 0 8.53125-3.820313 8.53125-8.53125 0-4.714844-3.820313-8.535157-8.53125-8.535157h-35.34375c-3.125-11.941406-12.449219-21.265624-24.390626-24.386718v-60.945313c0-4.714843-3.820312-8.535156-8.53125-8.535156-4.714843 0-8.535156 3.820313-8.535156 8.535156v60.945313c-16.625 4.277344-27.46875 20.261718-25.300781 37.289062 2.167969 17.03125 16.667969 29.785156 33.835937 29.765625zm0-51.199219c9.425782 0 17.066407 7.640626 17.066407 17.066407s-7.640625 17.066406-17.066407 17.066406c-9.425781 0-17.066406-7.640625-17.066406-17.066406s7.640625-17.066407 17.066406-17.066407zm0 0" data-original="#000000" class="active-path" data-old_color="#000000" fill="#FFFFFF"/></g> </svg>
