<?xml version="1.0" encoding="iso-8859-1"?>
<svg width="50" height="50" viewBox="0 0 50 50" fill="none" xmlns="http://www.w3.org/2000/svg">
    <path d="M20.597 23.558l-8.612 3.34-.014.005c-.157.065-3.866 1.639-3.866 5.97V48.13c0 1.03.84 1.869 1.87 1.869h13.194a.732.732 0 1 0 0-1.465h-1.603V28.26a6.008 6.008 0 0 0 6.703 0v20.275h-1.682a.732.732 0 1 0 0 1.465h13.351c1.031 0 1.87-.839 1.87-1.87v-7.5a.732.732 0 1 0-1.465 0v7.5a.405.405 0 0 1-.405.405h-2.761V35.317a.732.732 0 1 0-1.465 0v13.218h-5.978v-.59c.2.06.414.093.636.093a.733.733 0 0 0 0-1.464c-.345 0-.636-.23-.636-.503v-5.41c0-.273.291-.503.636-.503h2.176c.345 0 .636.23.636.503v5.41c0 .273-.291.503-.636.503a.732.732 0 1 0 0 1.464c1.159 0 2.101-.882 2.101-1.967v-5.41c0-1.085-.942-1.968-2.1-1.968h-.356v-2.646l1.377-1.753a1.341 1.341 0 0 0-.249-1.905l-1.226-.938 2.228-2.053c.488-.448.58-1.174.222-1.724l-.451-.692 1.694.657 1.603.62.02.01c.288.13 2.934 1.41 2.934 4.603v4.34a.732.732 0 1 0 1.464 0v-4.34c0-4.33-3.707-5.904-3.865-5.97l-.014-.005-8.597-3.33a.957.957 0 0 0-.038-.016.212.212 0 0 1-.122-.19v-1.909a6.864 6.864 0 0 0 2.6-4.54c1.61-.217 2.94-1.507 2.94-3.09 0-.706-.267-1.384-.756-1.938V9.077C33.955 4.072 29.883 0 24.878 0S15.8 4.072 15.8 9.077v2.87c-.487.544-.755 1.201-.755 1.875 0 1.597 1.348 2.875 2.939 3.09a6.79 6.79 0 0 0 2.748 4.649v1.8a.212.212 0 0 1-.135.197zm-.496 24.977h-5.9V35.317a.733.733 0 1 0-1.465 0v13.218H9.976a.405.405 0 0 1-.404-.404V32.872c0-2.124 1.357-3.93 2.953-4.612l3.194-1.239-.426.653a1.34 1.34 0 0 0 .221 1.724l2.229 2.053-1.226.938a1.34 1.34 0 0 0-.25 1.905l1.457 1.854v3.987a2.37 2.37 0 0 0-1.634 2.25 2.368 2.368 0 0 0 2.366 2.365c.64 0 1.22-.255 1.646-.668v4.453zm-1.646-7.052a.902.902 0 0 1 0 1.802.902.902 0 0 1 0-1.802zm1.646-.796a2.366 2.366 0 0 0-.913-.552v-2.123l.913 1.162v1.513zm0-3.884l-2.607-3.318 1.242-.95a1.342 1.342 0 0 0 .099-2.069l-2.259-2.08 1.483-2.273 2.042-.791v11.48zm10.624 1.89h-.355c-.093 0-.184.008-.274.02l.63-.802v.782zm-.991-13.398l2.016.78 1.508 2.311L31 30.466a1.348 1.348 0 0 0-.439 1.054c.019.398.214.768.538 1.015l1.242.95-2.607 3.318V25.295zm-1.465 1.04a4.534 4.534 0 0 1-6.703 0v-1.664c.39-.314.631-.795.631-1.31v-.987c1.716.698 3.755.717 5.51-.05v1.037c0 .483.213.937.562 1.25v1.723zm4.977-12.513c0 .764-.662 1.394-1.416 1.59v-3.177c.804.211 1.416.858 1.416 1.587zm-15.32 1.59c-.756-.196-1.416-.828-1.416-1.59 0-.735.712-1.322 1.416-1.542v3.132zm.17-5.006a1.384 1.384 0 0 0-.139.36 3.833 3.833 0 0 0-.692.192v-1.88c0-4.198 3.415-7.613 7.613-7.613 4.197 0 7.612 3.415 7.612 7.612v1.827a3.765 3.765 0 0 0-.66-.164c0-.74.032-.572-2.306-3.084a1.299 1.299 0 0 0-1.664-.203c-2.346 1.532-5.324 2.458-8.274 2.314-.21-.01-1.037-.158-1.49.639zm1.295 5.627v-4.81c2.984.174 6.318-.652 9.154-2.469 1.037 1.114 1.634 1.735 1.82 1.963v5.316c0 1.801-.904 3.534-2.515 4.561-3.488 2.208-8.459-.138-8.459-4.56z" fill="#fff"/>
</svg>
