<?xml version="1.0" encoding="utf-8"?><svg xmlns="http://www.w3.org/2000/svg" xmlns:xlink="http://www.w3.org/1999/xlink"><symbol fill="none" viewBox="0 0 16 16" id="call" xmlns="http://www.w3.org/2000/svg"><g clip-path="url(#aa)" fill="#fff"><path d="m15.69 12.723-1.774-1.183-1.577-1.051a.699.699 0 0 0-.938.152l-.976 1.255a.695.695 0 0 1-.887.184c-.662-.369-1.445-.716-3.172-2.445-1.728-1.73-2.077-2.51-2.445-3.172a.695.695 0 0 1 .184-.888L5.359 4.6a.698.698 0 0 0 .153-.938l-1.02-1.529L3.279.311A.698.698 0 0 0 2.338.1L.936.94A1.712 1.712 0 0 0 .16 1.946c-.383 1.397-.46 4.479 4.478 9.417 4.939 4.94 8.02 4.862 9.417 4.478.423-.12.783-.398 1.006-.777l.84-1.401a.698.698 0 0 0-.21-.94zM9.103 2.483a4.695 4.695 0 0 1 4.69 4.69.276.276 0 1 0 .552 0A5.247 5.247 0 0 0 9.103 1.93a.276.276 0 0 0 0 .552z"/><path d="M9.103 4.138a3.038 3.038 0 0 1 3.035 3.034.276.276 0 1 0 .552 0 3.59 3.59 0 0 0-3.587-3.586.276.276 0 1 0 0 .552z"/><path d="M9.103 5.793a1.38 1.38 0 0 1 1.38 1.38.276.276 0 1 0 .551 0 1.933 1.933 0 0 0-1.93-1.932.276.276 0 0 0 0 .552z"/></g><defs><clipPath id="aa"><path fill="#fff" d="M0 0h16v16H0z"/></clipPath></defs></symbol><symbol fill="none" viewBox="0 0 50 50" id="clean" xmlns="http://www.w3.org/2000/svg"><g clip-path="url(#ba)" fill="#fff"><path d="M49.852 27.995c-.124-.248-.434-.372-.683-.434-1.426 0-13.702-.496-13.702-14.757a.82.82 0 0 0-.807-.806.82.82 0 0 0-.806.806c0 14.261-12.276 14.757-13.64 14.757a.704.704 0 0 0-.497.186c-.124.062-.186.186-.248.248a.92.92 0 0 0 0 .806c.124.248.434.434.744.434h.062c1.427 0 13.641.496 13.641 14.757a.82.82 0 0 0 .806.806.82.82 0 0 0 .806-.806c0-14.199 12.215-14.757 13.641-14.757.31 0 .559-.186.745-.434a.763.763 0 0 0-.063-.806zm-15.192 9.92c-1.798-5.89-6.2-8.432-9.672-9.548 3.472-1.116 7.874-3.658 9.672-9.549 1.799 5.89 6.2 8.433 9.673 9.55-3.472 1.115-7.874 3.657-9.673 9.548zM24.43 11.874c.434 0 .806-.372.806-.868a.82.82 0 0 0-.806-.806c-.744 0-7.44-.248-7.44-8.06a.82.82 0 0 0-.807-.807.82.82 0 0 0-.806.806c0 7.813-6.696 8.06-7.44 8.06h-.062c-.434.063-.745.373-.745.807a.82.82 0 0 0 .807.806c.806 0 7.44.248 7.44 8.06a.82.82 0 0 0 .806.807c.372.062.744-.31.744-.744 0-7.813 6.697-8.061 7.44-8.061h.063zm-8.309 3.534c-.992-2.356-2.79-3.658-4.464-4.402 1.798-.744 3.472-2.17 4.464-4.402.992 2.356 2.79 3.658 4.464 4.402-1.798.744-3.472 2.17-4.464 4.402zM17.3 38.164c-.745 0-7.441-.248-7.441-8.06a.82.82 0 0 0-.806-.807.82.82 0 0 0-.806.806c0 7.813-6.697 8.06-7.44 8.06H.743c-.434.063-.744.373-.744.807a.82.82 0 0 0 .806.806c.806 0 7.44.248 7.44 8.06a.82.82 0 0 0 .807.807c.372.124.744-.248.744-.745 0-7.812 6.696-8.06 7.44-8.06h.062c.434 0 .806-.372.806-.868a.82.82 0 0 0-.806-.806zm-8.31 5.27c-1.053-2.356-2.79-3.658-4.464-4.402 1.798-.744 3.473-2.17 4.465-4.402.992 2.356 2.79 3.658 4.464 4.402-1.798.744-3.472 2.17-4.464 4.402z"/></g><defs><clipPath id="ba"><path fill="#fff" d="M0 0h50v50H0z"/></clipPath></defs></symbol><symbol viewBox="0 0 512 512" id="clock" xmlns="http://www.w3.org/2000/svg"><g fill="#FFF"><path d="M25.602 512h42.664a25.47 25.47 0 0 0 18.945-8.535h214.016a68.128 68.128 0 0 0 35.492-9.957l159.922-97.356a31.974 31.974 0 0 0 14.746-21.215 31.422 31.422 0 0 0-5.344-24.515 8.225 8.225 0 0 0-.496-.727 31.843 31.843 0 0 0-35.625-11.093l-56.832 18.945c49.992-49.05 68.515-121.856 48.043-188.832-20.469-66.977-76.528-116.988-145.399-129.707V25.602C315.734 11.46 304.274 0 290.133 0h-17.067c-14.136 0-25.601 11.46-25.601 25.602v13.406a187.613 187.613 0 0 0-137.88 259.66H92.298a25.6 25.6 0 0 0-24.031-17.066H25.602C11.46 281.602 0 293.062 0 307.199v179.2C0 500.538 11.46 512 25.602 512zM264.535 25.602a8.533 8.533 0 0 1 8.531-8.536h17.067a8.534 8.534 0 0 1 8.535 8.536v11.09c-5.625-.512-11.309-.81-17.066-.81-5.762 0-11.446.298-17.067.81zM110.934 223.574c.004-83.855 60.93-155.285 143.734-168.515 82.8-13.235 162.953 35.648 189.094 115.324 26.14 79.676-9.473 166.539-84.024 204.93l-47.734 15.906a25.639 25.639 0 0 1-8.106 1.316H299a39.174 39.174 0 0 0 2.184-16.82c68.71-8.727 123.109-62.305 132.886-130.875 9.774-68.567-27.492-135.211-91.023-162.79-63.535-27.581-137.668-9.288-181.082 44.677-43.414 53.964-45.402 130.293-4.86 186.445a86.636 86.636 0 0 0-27.484-11.996 171.39 171.39 0 0 1-18.687-77.602zm88.558 108.824a136.671 136.671 0 0 1-31.496-33.375l7.024-4.058a8.547 8.547 0 0 0 4.316-7.403 8.54 8.54 0 0 0-4.285-7.417 8.543 8.543 0 0 0-8.567.039l-7.023 4.054a136.261 136.261 0 0 1-14.113-52.133h8.254c4.71 0 8.53-3.82 8.53-8.53a8.533 8.533 0 0 0-8.53-8.536H145.5a135.438 135.438 0 0 1 13.96-52.121l7.024 4.047a8.536 8.536 0 0 0 12.852-7.383 8.536 8.536 0 0 0-4.316-7.398l-7.094-4.086a137.734 137.734 0 0 1 38.187-38.196l4.098 7.082a8.533 8.533 0 0 0 7.398 4.266 8.347 8.347 0 0 0 4.266-1.145A8.533 8.533 0 0 0 225 108.45l-4.055-7.012a135.369 135.369 0 0 1 52.121-13.96v8.097c0 4.711 3.82 8.531 8.536 8.531 4.71 0 8.53-3.82 8.53-8.53v-8.098a135.388 135.388 0 0 1 52.13 13.96l-4.051 7.012c-2.356 4.082-.957 9.301 3.121 11.656a8.37 8.37 0 0 0 4.27 1.145 8.538 8.538 0 0 0 7.398-4.266l4.094-7.082a137.734 137.734 0 0 1 38.187 38.196l-7.09 4.086a8.533 8.533 0 1 0 8.531 14.781l7.024-4.047a135.359 135.359 0 0 1 13.953 52.121h-8.097a8.534 8.534 0 1 0 0 17.066h8.113a135.333 135.333 0 0 1-13.953 52.149l-7.047-4.07a8.529 8.529 0 0 0-12.848 7.379 8.535 8.535 0 0 0 4.313 7.402l7.015 4.05a137.585 137.585 0 0 1-38.187 38.11l-4.02-6.969a8.528 8.528 0 0 0-7.398-4.316 8.529 8.529 0 0 0-7.38 12.848l4.071 7.05a135.398 135.398 0 0 1-46.355 13.414c0-.07-.059-.144-.102-.215l-.765-1.28a51.482 51.482 0 0 0-43.907-24.856h-44.644a68.978 68.978 0 0 1-7.016-.403zm-46.933-1.468a86.743 86.743 0 0 0 53.949 18.937h44.637a34.294 34.294 0 0 1 29.261 16.563l.766 1.273a22.3 22.3 0 0 1-1.277 24.832h-51.84a85.006 85.006 0 0 0-47.336 14.336l-6.254 4.164c-3.922 2.613-4.98 7.914-2.363 11.836 2.613 3.918 7.914 4.977 11.835 2.363l6.247-4.164a68.004 68.004 0 0 1 37.87-11.468h75.844c.743 0 1.47-.137 2.2-.18.172 0 .316.094.496.094h.793c1.195-.114 2.27-.23 3.472-.446h.121c2.176-.36 4.32-.886 6.418-1.578l157.961-52.66a14.72 14.72 0 0 1 16.11 4.5c.144.246.316.484.488.723a14.843 14.843 0 0 1-4.148 21.59l-159.957 97.289a51.215 51.215 0 0 1-26.625 7.464H93.867V315.734h15.36a69.578 69.578 0 0 1 43.308 15.196zM17.066 307.2c0-4.712 3.82-8.532 8.536-8.532h42.664a8.533 8.533 0 0 1 8.535 8.531v179.2a8.534 8.534 0 0 1-8.535 8.535H25.602a8.534 8.534 0 0 1-8.536-8.536zm0 0" data-original="#000000" class="cactive-path" data-old_color="#000000"/><path d="M281.602 257.707c15.515-.059 29.039-10.574 32.921-25.602h35.344a8.533 8.533 0 0 0 0-17.066h-35.344a34.135 34.135 0 0 0-24.39-24.387v-60.945a8.533 8.533 0 1 0-17.067 0v60.945c-16.625 4.278-27.468 20.262-25.3 37.29 2.168 17.03 16.668 29.785 33.836 29.765zm0-51.2c9.425 0 17.066 7.641 17.066 17.067s-7.64 17.067-17.066 17.067c-9.426 0-17.067-7.641-17.067-17.067s7.64-17.066 17.067-17.066zm0 0" data-original="#000000" class="cactive-path" data-old_color="#000000"/></g></symbol><symbol fill="none" viewBox="0 0 16 16" id="clock2" xmlns="http://www.w3.org/2000/svg"><path d="M8 0C3.589 0 0 3.589 0 8s3.589 8 8 8 8-3.589 8-8-3.589-8-8-8zm0 14.298A6.305 6.305 0 0 1 1.702 8 6.305 6.305 0 0 1 8 1.702 6.305 6.305 0 0 1 14.298 8 6.305 6.305 0 0 1 8 14.298z" fill="#fff"/><path d="M12.17 7.753H8.573V3.43a.659.659 0 0 0-1.317 0v4.982c0 .363.295.658.658.658h4.254a.659.659 0 0 0 0-1.317z" fill="#fff"/></symbol><symbol fill="none" viewBox="0 0 50 50" id="doctor" xmlns="http://www.w3.org/2000/svg"><path d="m20.597 23.558-8.612 3.34-.014.005c-.157.065-3.866 1.639-3.866 5.97V48.13c0 1.03.84 1.869 1.87 1.869h13.194a.732.732 0 1 0 0-1.465h-1.603V28.26a6.008 6.008 0 0 0 6.703 0v20.275h-1.682a.732.732 0 1 0 0 1.465h13.351c1.031 0 1.87-.839 1.87-1.87v-7.5a.732.732 0 1 0-1.465 0v7.5a.405.405 0 0 1-.405.405h-2.761V35.317a.732.732 0 1 0-1.465 0v13.218h-5.978v-.59c.2.06.414.093.636.093a.733.733 0 0 0 0-1.464c-.345 0-.636-.23-.636-.503v-5.41c0-.273.291-.503.636-.503h2.176c.345 0 .636.23.636.503v5.41c0 .273-.291.503-.636.503a.732.732 0 1 0 0 1.464c1.159 0 2.101-.882 2.101-1.967v-5.41c0-1.085-.942-1.968-2.1-1.968h-.356v-2.646l1.377-1.753a1.341 1.341 0 0 0-.249-1.905l-1.226-.938 2.228-2.053c.488-.448.58-1.174.222-1.724l-.451-.692 1.694.657 1.603.62.02.01c.288.13 2.934 1.41 2.934 4.603v4.34a.732.732 0 1 0 1.464 0v-4.34c0-4.33-3.707-5.904-3.865-5.97l-.014-.005-8.597-3.33a.957.957 0 0 0-.038-.016.212.212 0 0 1-.122-.19v-1.909a6.864 6.864 0 0 0 2.6-4.54c1.61-.217 2.94-1.507 2.94-3.09a2.92 2.92 0 0 0-.756-1.938V9.077C33.955 4.072 29.883 0 24.878 0S15.8 4.072 15.8 9.077v2.87c-.487.544-.755 1.201-.755 1.875 0 1.597 1.348 2.875 2.939 3.09a6.79 6.79 0 0 0 2.748 4.649v1.8a.212.212 0 0 1-.135.197zm-.496 24.977h-5.9V35.317a.733.733 0 1 0-1.465 0v13.218h-2.76a.405.405 0 0 1-.404-.404V32.872c0-2.124 1.357-3.93 2.953-4.612l3.194-1.239-.426.653a1.34 1.34 0 0 0 .221 1.724l2.229 2.053-1.226.938a1.34 1.34 0 0 0-.25 1.905l1.457 1.854v3.987a2.37 2.37 0 0 0-1.634 2.25 2.368 2.368 0 0 0 2.366 2.365c.64 0 1.22-.255 1.646-.668v4.453zm-1.646-7.052a.902.902 0 0 1 0 1.802.902.902 0 0 1 0-1.802zm1.646-.796a2.366 2.366 0 0 0-.913-.552v-2.123l.913 1.162v1.513zm0-3.884-2.607-3.318 1.242-.95a1.342 1.342 0 0 0 .099-2.069l-2.259-2.08 1.483-2.273 2.042-.791v11.48zm10.624 1.89h-.355c-.093 0-.184.008-.274.02l.63-.802v.782zm-.991-13.398 2.016.78 1.508 2.311L31 30.466a1.348 1.348 0 0 0-.439 1.054c.019.398.214.768.538 1.015l1.242.95-2.607 3.318V25.295zm-1.465 1.04a4.534 4.534 0 0 1-6.703 0v-1.664c.39-.314.631-.795.631-1.31v-.987c1.716.698 3.755.717 5.51-.05v1.037c0 .483.213.937.562 1.25v1.723zm4.977-12.513c0 .764-.662 1.394-1.416 1.59v-3.177c.804.211 1.416.858 1.416 1.587zm-15.32 1.59c-.756-.196-1.416-.828-1.416-1.59 0-.735.712-1.322 1.416-1.542v3.132zm.17-5.006a1.384 1.384 0 0 0-.139.36 3.833 3.833 0 0 0-.692.192v-1.88c0-4.198 3.415-7.613 7.613-7.613 4.197 0 7.612 3.415 7.612 7.612v1.827a3.765 3.765 0 0 0-.66-.164c0-.74.032-.572-2.306-3.084a1.299 1.299 0 0 0-1.664-.203c-2.346 1.532-5.324 2.458-8.274 2.314-.21-.01-1.037-.158-1.49.639zm1.295 5.627v-4.81c2.984.174 6.318-.652 9.154-2.469 1.037 1.114 1.634 1.735 1.82 1.963v5.316a5.401 5.401 0 0 1-2.515 4.561c-3.488 2.208-8.459-.138-8.459-4.56z" fill="#fff"/></symbol><symbol viewBox="0 0 60.969 60.969" style="enable-background:new 0 0 60.969 60.969" xml:space="preserve" id="equipment2" xmlns="http://www.w3.org/2000/svg"><path d="m5.193 12.367 1.668-.362a3.565 3.565 0 0 0 2.726-4.233l-.878-4.05A3.584 3.584 0 0 0 5.226.917c-.252 0-.505.027-.752.081l-1.668.361A3.529 3.529 0 0 0 .57 2.913a3.528 3.528 0 0 0-.488 2.679l.878 4.05a3.581 3.581 0 0 0 3.481 2.806c.252 0 .505-.027.752-.081zM2.915 9.219l-.878-4.051c-.088-.404-.012-.821.215-1.173s.574-.594.978-.681l1.668-.362a1.57 1.57 0 0 1 1.855 1.194l.878 4.049a1.564 1.564 0 0 1-1.194 1.856l-1.668.362a1.581 1.581 0 0 1-1.854-1.194zm57.012 33.997L44.191 27.512c-1.181-1.178-3.411-2.1-5.078-2.1l-3.429.001v-3.441c1.963 0 3.561-1.436 3.561-3.2s-1.598-3.2-3.561-3.2H25.649c-1.963 0-3.56 1.436-3.56 3.2s1.597 3.2 3.56 3.2v3.444h-.578c-1.144 0-2.854-.709-3.663-1.517l-9.923-9.922c-1.34-1.341-3.694-1.339-5.034 0l-1.207 1.207a3.535 3.535 0 0 0-1.039 2.517c0 .953.369 1.847 1.04 2.517l11.936 11.92c1.181 1.179 3.411 2.102 5.078 2.102h7.408v8.133h-4.12a1 1 0 0 0-1 1v4.12h-2.2a3.564 3.564 0 0 0-3.56 3.56v5.44a3.564 3.564 0 0 0 3.56 3.56h20.48a3.565 3.565 0 0 0 3.561-3.56v-5.44a3.565 3.565 0 0 0-3.561-3.56h-2.199v-4.12a1 1 0 0 0-1-1h-4.12V34.24h.817c1.143 0 2.854.709 3.663 1.517l13.701 13.701c.67.67 1.563 1.04 2.518 1.04.953 0 1.847-.369 2.517-1.04l1.207-1.207a3.532 3.532 0 0 0 1.039-2.517 3.535 3.535 0 0 0-1.043-2.518zM24.089 18.772c0-.65.714-1.2 1.56-1.2h10.035c.846 0 1.561.55 1.561 1.2s-.715 1.2-1.561 1.2H25.649c-.846 0-1.56-.55-1.56-1.2zm3.56 3.2h6.035v3.442l-6.035.002v-3.444zm16.738 29.08v5.44c0 .86-.7 1.56-1.561 1.56h-20.48c-.86 0-1.56-.7-1.56-1.56v-5.44c0-.86.699-1.56 1.56-1.56H42.826c.861 0 1.561.7 1.561 1.56zm-5.76-3.56H26.546v-3.12h12.081v3.12zm-5.12-5.12h-1.841v-8.133h1.841v8.133zm2.818-10.133H22.259c-1.143 0-2.855-.709-3.664-1.517L6.659 18.802a1.543 1.543 0 0 1-.454-1.102c0-.418.161-.81.453-1.103l1.207-1.207a1.553 1.553 0 0 1 1.104-.454c.418 0 .81.161 1.103.454l9.923 9.922c1.179 1.179 3.409 2.103 5.077 2.103h.578v2.249a1 1 0 1 0 2 0v-2.25l6.035-.002v2.251a1 1 0 1 0 2 0v-2.252l3.429-.001c1.144 0 2.856.708 3.666 1.516L55.711 41.83l-3.276 3.541-11.033-11.03c-1.18-1.178-3.41-2.102-5.077-2.102zm22.191 14.597-1.207 1.207c-.586.586-1.62.584-2.206 0l-1.254-1.254 3.277-3.542 1.389 1.386c.293.292.454.683.454 1.102 0 .417-.161.808-.453 1.101z" data-original="#231F20" class="factive-path" data-old_color="#231F20" fill="#FFF"/></symbol><symbol style="enable-background:new 0 0 512 512" xml:space="preserve" viewBox="0 0 512 512" id="guarantee" xmlns="http://www.w3.org/2000/svg"><path d="M341.333 281.6c-28.237 0-51.2 22.963-51.2 51.2 0 28.237 22.963 51.2 51.2 51.2 28.237 0 51.2-22.963 51.2-51.2 0-28.237-22.963-51.2-51.2-51.2zm0 85.333c-18.825 0-34.133-15.309-34.133-34.133 0-18.825 15.309-34.133 34.133-34.133 18.825 0 34.133 15.309 34.133 34.133.001 18.825-15.308 34.133-34.133 34.133z" data-original="#000000" class="gactive-path" data-old_color="#000000" fill="#FFF"/><path d="M358.4 366.933v35.26l-12.339-8.226a8.495 8.495 0 0 0-9.464 0l-12.331 8.226v-35.26H307.2v51.2a8.535 8.535 0 0 0 13.269 7.099l20.864-13.909 20.864 13.909a8.544 8.544 0 0 0 8.764.427 8.538 8.538 0 0 0 4.506-7.526v-51.2H358.4zM196.267 85.333H307.2V102.4H196.267zM119.467 136.533h273.067V153.6H119.467zM119.467 187.733H307.2V204.8H119.467zM341.333 187.733h51.2V204.8h-51.2zM119.467 238.933h273.067V256H119.467zM119.467 290.133h102.4V307.2h-102.4zM119.467 332.8h42.667v17.067h-42.667zM196.267 332.8h25.6v17.067h-25.6zM469.333 0c-23.526 0-42.667 19.14-42.667 42.667v17.067a8.53 8.53 0 0 0 8.533 8.533h68.267a8.53 8.53 0 0 0 8.533-8.533V42.667C512 19.14 492.86 0 469.333 0zm25.6 51.2h-51.2v-8.533c0-14.114 11.486-25.6 25.6-25.6s25.6 11.486 25.6 25.6V51.2z" data-original="#000000" class="gactive-path" data-old_color="#000000" fill="#FFF"/><path d="M469.333 0h-358.4C87.407 0 68.267 19.14 68.267 42.667v409.6h17.067v-409.6c0-14.114 11.486-25.6 25.6-25.6h324.284a42.443 42.443 0 0 0-8.55 25.6v426.667c0 14.114-11.486 25.6-25.6 25.6H76.8V512h324.267c23.526 0 42.667-19.14 42.667-42.667V42.667c0-14.114 11.486-25.6 25.6-25.6 4.719 0 8.533-3.823 8.533-8.533S474.052 0 469.333 0z" data-original="#000000" class="gactive-path" data-old_color="#000000" fill="#FFF"/><path d="M401.067 494.933c-14.114 0-25.6-11.486-25.6-25.6v-17.067a8.525 8.525 0 0 0-8.533-8.533H8.533A8.53 8.53 0 0 0 0 452.266v17.067C0 492.86 19.14 512 42.667 512h358.4a8.525 8.525 0 0 0 8.533-8.533 8.526 8.526 0 0 0-8.533-8.534zm-358.4 0c-14.114 0-25.6-11.486-25.6-25.6V460.8H358.4v8.533c0 9.6 3.183 18.466 8.55 25.6H42.667z" data-original="#000000" class="gactive-path" data-old_color="#000000" fill="#FFF"/></symbol><symbol viewBox="-96 0 511 511.997" id="implant" xmlns="http://www.w3.org/2000/svg"><path d="M295.805 28.563C280.867 10.145 260.55 0 238.598 0c-31.989 0-54.649 11.613-76.563 22.844a772.893 772.893 0 0 1-9.574 4.855 761.403 761.403 0 0 1-4.008-2.93C132.664 13.157 114.77 0 81.555 0c-21.953 0-42.27 10.145-57.207 28.563C8.746 47.8.5 74.03.5 104.421c0 38.582 16.055 70.824 31.586 102.012 3.715 7.464 7.562 15.183 11.125 22.867 5.113 11.039 16.316 18.168 28.539 18.168h.895V256c0 12.977 10.558 23.531 23.53 23.531h8.532v32.95l-1.574.222c-4.102.586-6.953 4.387-6.367 8.484a7.505 7.505 0 0 0 7.418 6.442c.171 0 .351-.024.523-.035v16.949l-1.574.227a7.498 7.498 0 0 0 1.05 14.921c.172 0 .352-.023.524-.035v16.95l-1.574.226c-4.102.586-6.953 4.387-6.367 8.484a7.505 7.505 0 0 0 7.418 6.442c.171 0 .351-.028.523-.04v16.954l-1.574.223a7.504 7.504 0 0 0-6.367 8.488 7.505 7.505 0 0 0 7.418 6.437c.171 0 .351-.023.523-.035v16.95l-1.574.226c-4.102.586-6.953 4.387-6.367 8.484a7.505 7.505 0 0 0 7.418 6.442c.171 0 .351-.028.523-.04v4.13c0 4.261 1.16 8.449 3.356 12.105l19.43 32.383c2.788 4.644 7.886 7.531 13.304 7.531h39.02c5.417 0 10.515-2.887 13.304-7.531l19.43-32.383a23.559 23.559 0 0 0 3.351-12.105v-19.973l1.578-.227a7.5 7.5 0 0 0 6.364-8.484c-.559-3.918-4.055-6.688-7.942-6.414v-16.941l1.578-.223a7.501 7.501 0 0 0 6.364-8.488c-.559-3.918-4.055-6.688-7.942-6.414v-16.938l1.578-.227a7.497 7.497 0 0 0 6.364-8.484c-.559-3.918-4.055-6.687-7.942-6.414v-16.941l1.578-.223a7.5 7.5 0 0 0 6.364-8.484c-.559-3.918-4.055-6.688-7.942-6.414v-16.942l1.578-.226a7.497 7.497 0 0 0 6.364-8.485c-.559-3.918-4.055-6.687-7.942-6.414v-17.09h8.532c12.976 0 23.535-10.554 23.535-23.531v-8.531h.879c12.242 0 23.453-7.153 28.562-18.215 3.457-7.492 7.176-15.016 10.766-22.293 15.476-31.344 31.48-63.754 31.48-102.54 0-30.39-8.246-56.62-23.851-75.859zM200.902 459.98a8.516 8.516 0 0 1-1.218 4.387l-19.426 32.383a.514.514 0 0 1-.442.25h-39.023a.523.523 0 0 1-.441-.25l-19.43-32.383a8.554 8.554 0 0 1-1.215-4.39v-6.23l81.195-11.599zm0-65.05-41.66 5.953c-4.101.586-6.953 4.387-6.367 8.484a7.505 7.505 0 0 0 7.418 6.442c.352 0 .71-.024 1.07-.079l39.54-5.644v16.91l-81.196 11.602v-16.914l9.594-1.371c4.101-.586 6.953-4.387 6.367-8.485-.586-4.101-4.39-6.953-8.488-6.363l-7.473 1.066v-16.914l81.195-11.597zm0-32.063-81.195 11.598v-16.91l81.195-11.602zm0-32.066-81.195 11.601v-16.914l81.195-11.597zm0-32.063-81.195 11.598V279.53h81.195zm73.825-98.418c-3.637 7.364-7.395 14.977-10.938 22.645-2.664 5.773-8.531 9.504-14.945 9.504H224.43a7.497 7.497 0 0 0-7.5 7.5 7.5 7.5 0 0 0 7.5 7.5h8.535V256c0 4.703-3.828 8.531-8.531 8.531H96.176c-4.707 0-8.531-3.828-8.531-8.531v-8.531H192.37a7.5 7.5 0 1 0 0-15H71.75c-6.402 0-12.266-3.719-14.93-9.477-3.652-7.875-7.543-15.687-11.308-23.246-15.434-30.996-30.016-60.273-30.016-95.324C15.496 45.715 48.726 15 81.555 15c28.293 0 43.402 11.11 58.011 21.852 10.176 7.484 20.696 15.218 34.746 18.222a7.5 7.5 0 0 0 8.903-5.765 7.5 7.5 0 0 0-5.766-8.903c-3.586-.765-6.894-1.953-10.07-3.445.496-.258 1.004-.516 1.5-.766C189.207 25.773 210.23 15 238.598 15c32.824 0 66.058 30.715 66.058 89.422 0 35.285-14.539 64.726-29.93 95.898zm0 0" data-original="#000000" class="hactive-path" data-old_color="#000000" fill="#FFF"/></symbol><symbol fill="none" viewBox="0 0 16 16" id="location" xmlns="http://www.w3.org/2000/svg"><path d="M8 0a5.801 5.801 0 0 0-5.795 5.795c0 3.965 5.186 9.786 5.407 10.032.207.23.57.23.776 0 .221-.246 5.407-6.067 5.407-10.032C13.795 2.599 11.195 0 8 0zm0 8.71a2.919 2.919 0 0 1-2.915-2.915A2.919 2.919 0 0 1 8 2.879a2.919 2.919 0 0 1 2.915 2.916A2.919 2.919 0 0 1 8 8.71z" fill="#fff"/></symbol><symbol fill="none" viewBox="0 0 16 16" id="mail" xmlns="http://www.w3.org/2000/svg"><path d="M14.5 2h-13A1.5 1.5 0 0 0 0 3.5v9A1.5 1.5 0 0 0 1.5 14h13a1.5 1.5 0 0 0 1.5-1.5v-9A1.5 1.5 0 0 0 14.5 2zm-1.766 1L8 6.738 3.266 3h9.468zM14 13H2V4.646l6 4.615 6-4.616V13z" fill="#fff"/></symbol><symbol viewBox="0 0 331.493 331.493" style="enable-background:new 0 0 331.493 331.493" xml:space="preserve" id="money2" xmlns="http://www.w3.org/2000/svg"><path d="m298.761 57.093-101.2-54.8c-9.6-5.2-22.8-1.2-28 8.4l-59.2 110h-72c-9.2 0-16.4 7.2-16.4 16.4v178c0 9.2 7.2 16.4 16.4 16.4h230c9.2 0 16.4-7.2 16.4-16.4v-41.6h6.8c3.6 0 6.4-2.8 6.4-6.4v-47.6c0-3.6-2.8-6.4-6.4-6.4h-6.8v-46.8c0-7.6-5.6-14.4-12.8-16l35.2-65.2c5.2-10 1.6-22.4-8.4-28zm-72-24.4-63.2 117.2h-18l67.6-124.4 13.6 7.2zm-45.6-16c2-3.6 6.8-5.2 10.4-3.2l10 5.6-70.4 130.8h-22l72-133.2zm-146.8 120c0-1.2 1.6-3.2 3.6-3.2h65.2l-8.8 16h-56.4c-1.2 0-2.4 0-3.6.4v-13.2zm237.2 178.4c0 2-1.6 3.6-3.6 3.6h-230c-2 0-3.6-1.6-3.6-3.6v-148.8c0-2 1.6-3.6 3.6-3.6H267.561c2 0 3.6 1.6 3.6 3.6v46.8h-24.4c-10.8 0-19.2 8.8-19.2 19.2v22c0 10.8 8.8 19.2 19.2 19.2h24.8v41.6zm12.8-89.2h.4v34.8h-38c-3.6 0-6.4-2.8-6.4-6.4v-22c0-3.6 2.8-6.4 6.4-6.4h37.6zm11.2-147.2-38.4 71.2h-79.2l60-110.8 54.4 29.6c4 1.6 5.2 6.4 3.2 10z" data-original="#000000" class="kactive-path" data-old_color="#000000" fill="#FFF"/><path d="m271.161 72.693-3.2-1.6c-8-4.4-18.8-1.2-23.2 6.8l-4 7.6c-2 4-2.8 8.8-1.2 13.2 1.2 4.4 4.4 8 8.4 10l3.2 1.6c2.4 1.2 5.2 2 8 2 6.4 0 12-3.6 15.2-8.8l4-7.6c4-8.4.8-18.8-7.2-23.2zm-4.4 17.2-4 7.6c-1.2 2-4 2.8-6 1.6l-3.2-2c-.8-.4-1.6-1.6-2-2.4-.4-1.2-.4-2.4.4-3.2l4-7.6c.8-1.2 2.4-2.4 4-2.4.8 0 1.2 0 2 .4l3.2 1.6c1.6 1.6 2.4 4 1.6 6.4z" data-original="#000000" class="kactive-path" data-old_color="#000000" fill="#FFF"/></symbol><symbol viewBox="0 0 284.539 284.539" id="orthopantomogram" xmlns="http://www.w3.org/2000/svg"><g fill="#FFF"><path d="M279.796 184.95H4.742A4.744 4.744 0 0 1 0 180.208V23.716C0 13.255 8.512 4.742 18.974 4.742h246.591c10.462 0 18.974 8.512 18.974 18.974v156.492a4.744 4.744 0 0 1-4.743 4.742zM9.485 175.466h265.57V23.716c0-5.236-4.259-9.489-9.489-9.489H18.974c-5.231 0-9.489 4.254-9.489 9.489z" data-original="#000000" class="lactive-path" data-old_color="#000000"/><path d="M265.565 222.889H18.974C8.512 222.889 0 214.376 0 203.915v-23.707a4.744 4.744 0 0 1 4.742-4.742h275.054a4.744 4.744 0 0 1 4.742 4.742v23.707c.001 10.461-8.512 18.974-18.973 18.974zM9.485 184.95v18.965c0 5.236 4.259 9.489 9.489 9.489h246.591c5.231 0 9.489-4.254 9.489-9.489V184.95z" data-original="#000000" class="lactive-path" data-old_color="#000000"/><path d="M156.496 203.919h-28.454c-2.618 0-4.742-2.125-4.742-4.742s2.125-4.742 4.742-4.742h28.454c2.618 0 4.742 2.125 4.742 4.742s-2.124 4.742-4.742 4.742zM260.827 184.95H23.712a4.744 4.744 0 0 1-4.742-4.742V28.454a4.744 4.744 0 0 1 4.742-4.742h237.116a4.744 4.744 0 0 1 4.742 4.742v151.754a4.744 4.744 0 0 1-4.743 4.742zm-232.373-9.484h227.631V33.196H28.454zM203.919 279.796h-123.3c-7.844 0-14.227-6.383-14.227-14.227s6.383-14.227 14.227-14.227h123.3c7.844 0 14.227 6.383 14.227 14.227s-6.383 14.227-14.227 14.227zm-123.3-18.969c-2.618 0-4.742 2.129-4.742 4.742s2.125 4.742 4.742 4.742h123.3c2.618 0 4.742-2.129 4.742-4.742s-2.125-4.742-4.742-4.742z" data-original="#000000" class="lactive-path" data-old_color="#000000"/><path d="M194.435 260.827H90.104a4.744 4.744 0 0 1-4.742-4.742 4.744 4.744 0 0 1 4.742-4.742c15.735 0 23.712-11.168 23.712-33.196a4.744 4.744 0 0 1 4.742-4.742h47.423a4.744 4.744 0 0 1 4.742 4.742c0 22.028 7.977 33.196 23.712 33.196a4.743 4.743 0 0 1 0 9.484zm-81.231-9.484h58.136c-5.843-6.469-9.281-16.1-9.968-28.454h-38.199c-.693 12.353-4.131 21.985-9.969 28.454zM165.568 156.496a6.783 6.783 0 0 1-6.507-4.913c-4.671-16.503-12.045-29.431-16.793-29.431-4.747 0-12.121 12.928-16.793 29.431a6.783 6.783 0 0 1-4.88 4.714c-2.352.569-4.837-.142-6.497-1.878-8.47-8.859-7.991-25.533-7.905-27.401-.005-4.567.991-10.471 2.964-17.324.74-2.58.247-5.354-1.361-7.611a43.652 43.652 0 0 1-1.01-1.48c-4.709-7.189-7.199-15.773-7.199-24.826v-4.154c0-15.394 16.048-19.458 24.537-19.458 8.328 0 14.483 3.988 18.144 7.275 3.661-3.286 9.817-7.275 18.144-7.275 8.489 0 24.537 4.064 24.537 19.462v4.154c0 9.053-2.49 17.637-7.199 24.826a43.42 43.42 0 0 1-1.005 1.475c-1.608 2.262-2.101 5.036-1.361 7.611 1.968 6.853 2.964 12.752 2.964 17.532.076 1.665.56 18.334-7.91 27.192a6.73 6.73 0 0 1-4.87 2.079zM124.125 61.65c-.602.005-15.052.199-15.052 9.978v4.154c0 7.204 1.954 13.99 5.648 19.628.261.398.526.792.806 1.186 3.282 4.619 4.282 10.352 2.741 15.716-1.698 5.923-2.599 11.078-2.599 14.915-.128 3.158.199 10.452 2.452 16.005 4.059-12.216 12.15-30.559 24.148-30.559 11.989 0 20.079 18.329 24.138 30.54 2.262-5.61 2.585-12.984 2.461-15.782-.005-4.045-.901-9.2-2.604-15.123-1.541-5.368-.541-11.097 2.746-15.721.275-.389.541-.778.797-1.171 3.704-5.648 5.658-12.434 5.658-19.638v-4.154c0-9.736-14.336-9.973-15.057-9.978-8.816.005-14.194 7.374-14.246 7.45-1.774 2.547-6.013 2.547-7.787 0-.198-.276-5.424-7.446-14.25-7.446z" data-original="#000000" class="lactive-path" data-old_color="#000000"/><path d="M128.042 80.619a4.744 4.744 0 0 1-4.742-4.742 4.744 4.744 0 0 1 4.742-4.742c2.826 0 7.934-4.477 10.528-7.711a4.746 4.746 0 0 1 6.668-.726 4.746 4.746 0 0 1 .726 6.668c-1.508 1.878-9.471 11.253-17.922 11.253zM42.681 71.135a4.744 4.744 0 0 1-4.742-4.742v-18.97a4.744 4.744 0 0 1 4.742-4.742H61.65a4.744 4.744 0 0 1 4.742 4.742 4.744 4.744 0 0 1-4.742 4.742H47.423v14.227a4.744 4.744 0 0 1-4.742 4.743zM241.858 165.981h-18.969a4.744 4.744 0 0 1-4.742-4.742 4.744 4.744 0 0 1 4.742-4.742h14.227V142.27c0-2.618 2.125-4.742 4.742-4.742s4.742 2.125 4.742 4.742v18.969a4.744 4.744 0 0 1-4.742 4.742z" data-original="#000000" class="lactive-path" data-old_color="#000000"/></g></symbol><symbol fill="none" viewBox="0 0 20 10" id="right-arrow" xmlns="http://www.w3.org/2000/svg"><path d="M19.77 4.29 15.688.228a.781.781 0 0 0-1.102 1.107l2.74 2.728H.781a.781.781 0 1 0 0 1.562h16.545l-2.74 2.728a.781.781 0 1 0 1.102 1.107l4.082-4.062v-.001a.782.782 0 0 0 0-1.106z" fill="#fff"/></symbol></svg>