<?xml version="1.0" encoding="utf-8"?><svg xmlns="http://www.w3.org/2000/svg" xmlns:xlink="http://www.w3.org/1999/xlink"><symbol viewBox="70 180 458 480" id="Sirius-logo" xmlns="http://www.w3.org/2000/svg"><path d="M348.46 247.143c-1.279-8.297-3.316-15.416-6.123-21.442-1.381-2.974-2.962-5.703-4.74-8.184-1.263-1.791-2.609-3.466-4.087-4.943-7.972-8.01-18.633-11.914-32.596-11.914-11.408 0-25.029 2.644-41.638 8.095-6.792 2.211-12.796 4.453-18.616 6.611-12.841 4.772-23.688 8.745-36.541 10.335-5.188.651-10.673.935-16.795.68l-1.695-.062.205 1.676c.506 4.338 13.461 9.438 17.532 9.945l.393.056 5.916-2.679c7.022-3.196 14.283-6.462 21.629-9.616 21.973-9.398 44.692-17.486 64.084-17.486 16.114 0 28.438 5.814 37.114 17.486 7.818 10.501 12.715 25.726 14.737 45.945l1.221 12.125 1.539 15.437.122-27.71c.039-9.079-.553-17.122-1.661-24.355" fill="#3d3f96"/><path d="M246.386 478.654c17.095-52.074-52.4-67.411-59.848-21.07-6.573 40.906-5.394 83.329-2.649 124.751l-5.019-2.041-8.328-5.909C85.544 497.778 42.096 366.514 61.709 256.029c1.726-9.734 4.06-20.555 8.268-30.328 2.762-6.4 6.316-12.365 11.115-17.179 32.206-32.399 52.736-7.318 76.92 17.179 22.944 23.232 49.171 45.928 91.766 18.661-38.825 20.308-60.079 2.608-80.962-18.661-13.396-13.635-26.641-28.746-44.279-36.225-17.101-7.292-37.405-1.716-50.788 11.629-6.978 6.977-11.996 15.414-15.578 24.596-2.226 5.71-3.854 11.732-5.116 17.842-3.137 15.216-3.7 31.206-3.616 45.394.645 102.048 45.032 219.518 114.396 293.475 4.747 5.024 15.049 12.22 22.939 11.182 10.894-1.444 3.242-15.103 1.747-21.925-5.702-25.914-11.472-136.066 30.307-135.925 31.819.801 19.426 44.434 12.618 80.146-7.091 37.258-13.527 50.029-5.324 70.271 1.406 3.449 8.345 6.057 12.069 6.585 41.146 5.771 107.335-91.827 110.269-178.479-13.807 142.891-170.8 273.978-102.074 64.387" fill="#3d3f96"/><path d="M90.47 308.287h30.305l-2.874 10.142h-.991c.046-.539.055-1.005.055-1.414 0-1.928-.563-3.426-1.686-4.492-1.141-1.058-3.04-1.65-5.739-1.819l-8.37 28.375c-.473 1.574-.704 2.715-.704 3.492 0 .712.297 1.281.866 1.689.575.404 1.733.638 3.501.679l-.262 1.025H85.892l.335-1.025c1.904 0 3.284-.352 4.148-1.082.88-.693 1.677-2.304 2.398-4.778l8.397-28.375c-2.894.104-5.311.73-7.256 1.887-1.945 1.175-3.717 3.125-5.325 5.838H87.49l2.98-10.142Zm28.693 18.973 1.135-7.033h1.163c.404.604.885.906 1.422.906.357 0 .864-.076 1.526-.196 2.389-.479 4.092-.71 5.089-.71 2.148 0 3.884.455 5.23 1.41 1.321.945 1.983 2.201 1.983 3.793 0 1.454-.665 2.787-2.017 4.017-1.329 1.238-3.213 2.11-5.619 2.657 3.599.776 5.404 2.726 5.404 5.889 0 2.422-1.097 4.469-3.26 6.174-2.168 1.732-4.782 2.567-7.83 2.567-2.176 0-3.961-.559-5.38-1.745-1.422-1.177-2.44-2.583-3.035-4.282l.863-.408c1.454 2.599 3.254 3.914 5.41 3.914 1.828 0 3.327-.832 4.474-2.499 1.144-1.66 1.717-3.365 1.717-5.084 0-1.425-.327-2.44-1.01-3.034-.679-.585-1.747-.894-3.188-.899l.393-1.341c1.925 0 3.491-.633 4.686-1.866 1.193-1.242 1.795-2.697 1.795-4.382 0-1.113-.327-1.921-.953-2.415-.629-.473-1.34-.727-2.119-.727-.982 0-2.125.371-3.379 1.111-1.26.741-2.365 2.146-3.308 4.183h-1.192Zm35.149 19.598c-3.055 0-5.509-.649-7.369-1.869-1.873-1.233-3.272-2.922-4.201-5.089-.946-2.132-1.41-4.224-1.41-6.269 0-4.095 1.163-8.256 3.525-12.424 2.351-4.171 5.526-7.529 9.522-10.028 3.981-2.523 7.926-3.772 11.813-3.772 2.279 0 4.447.569 6.489 1.706a12.333 12.333 0 0 1 4.774 4.823c1.14 2.053 1.711 4.125 1.711 6.208 0 4.696-1.492 9.404-4.468 14.109-2.991 4.705-6.334 8.13-10.064 10.238-2.806 1.575-6.263 2.367-10.322 2.367Zm10.968-37.178c-1.467 0-2.724.274-3.74.794-1.024.527-2.085 1.42-3.217 2.661-1.105 1.241-2.231 3.017-3.375 5.303-1.163 2.331-2.232 5.448-3.244 9.418-1.009 3.973-1.507 7.268-1.507 9.912 0 2.261.496 3.954 1.465 5.122.991 1.17 2.244 1.738 3.779 1.738 2.025 0 3.768-.676 5.198-2.031 2.817-2.682 5.146-6.611 6.929-11.818 1.779-5.193 2.677-9.817 2.677-13.871 0-2.532-.479-4.385-1.429-5.504-.959-1.146-2.133-1.724-3.536-1.724Zm22.911-1.393h14.883c3.331 0 5.693.184 7.109.54 1.879.431 3.327 1.306 4.371 2.607 1.015 1.266 1.522 2.729 1.522 4.361 0 1.339-.403 2.698-1.219 4.083-.813 1.396-2.032 2.533-3.656 3.429-1.613.887-4.105 1.745-7.448 2.489 3.475.982 5.886 2.233 7.239 3.777 1.361 1.544 2.037 3.329 2.037 5.36 0 1.909-.66 3.792-2 5.655-1.34 1.869-3.101 3.224-5.315 4.076-2.198.874-6.234 1.3-12.103 1.3H177.94l.359-1.025c1.521 0 2.614-.148 3.278-.419a3.652 3.652 0 0 0 1.579-1.291c.39-.579.862-1.797 1.397-3.658l6.723-23.149c.68-2.374 1.022-3.945 1.022-4.753 0-.637-.264-1.163-.806-1.594-.558-.436-1.749-.677-3.582-.746l.281-1.042Zm8.534 16.655c2.514-.054 4.498-.446 5.958-1.212 1.447-.742 2.629-1.993 3.49-3.734.877-1.719 1.325-3.368 1.325-4.896 0-1.442-.457-2.623-1.374-3.522-.899-.921-2.105-1.353-3.628-1.306l-1.529.048-4.242 14.622Zm-.672 2.056-4.806 16.776c.933.033 1.627.038 2.081.038 4.135 0 6.998-1.133 8.614-3.43 1.604-2.315 2.417-4.781 2.417-7.416 0-1.254-.314-2.375-.929-3.348-.625-.968-1.42-1.654-2.41-2.031-.975-.377-2.636-.589-4.967-.589Zm51.865-6.331-7.137 12.805 1.634 12.768h-1.634l-6.924-12.768 12.286-12.805h1.775Zm11.689 0-7.111 12.805 1.775 12.768h-1.775l-6.836-12.768 12.258-12.805h1.689Zm41.385-13.227-2.766 11.968h-1.092c-.133-3.256-.93-5.685-2.39-7.295-1.488-1.595-3.41-2.386-5.775-2.386-2.557 0-5.1 1.081-7.65 3.263-2.534 2.189-4.67 5.522-6.436 10.031-1.413 3.649-2.135 7.255-2.135 10.816 0 3.178.774 5.604 2.335 7.271 1.569 1.685 3.707 2.511 6.447 2.511 2.198 0 4.208-.467 6.017-1.421 1.83-.966 3.656-2.54 5.51-4.708h1.326c-2.292 3.457-4.616 5.877-6.971 7.26-2.327 1.384-5.188 2.079-8.585 2.079-4.526 0-8.178-1.397-10.94-4.114-2.792-2.774-4.169-6.37-4.169-10.777 0-4.151 1.106-8.12 3.307-11.893 2.198-3.739 5.37-6.816 9.512-9.122 4.133-2.331 8.26-3.483 12.344-3.483 1.557 0 3.501.333 5.805.998 1.193.339 2.007.511 2.489.511.918 0 1.855-.511 2.793-1.509h1.024Zm9.724 0c1.158 0 2.115.402 2.913 1.17.777.809 1.179 1.777 1.179 2.905 0 1.133-.402 2.108-1.206 2.897-.794.812-1.745 1.198-2.886 1.198-1.105 0-2.06-.386-2.868-1.198-.785-.789-1.184-1.764-1.184-2.897 0-1.128.381-2.096 1.179-2.905a3.981 3.981 0 0 1 2.873-1.17Zm1.714 12.787-5.685 19.735c-.312 1.122-.467 1.873-.467 2.236 0 .198.094.373.24.576.18.147.351.235.527.235.305 0 .636-.125.953-.412.843-.681 1.83-1.925 2.999-3.725l.935.569c-2.78 4.856-5.761 7.293-8.907 7.293-1.209 0-2.156-.346-2.868-1-.723-.674-1.091-1.544-1.091-2.57 0-.695.178-1.561.493-2.619l3.856-13.285c.374-1.259.562-2.235.562-2.881 0-.408-.179-.757-.536-1.08-.352-.311-.83-.478-1.431-.478-.293 0-.619.032-1.018.032l.356-1.116 9.439-1.51h1.643Zm4.757 1.543 9.21-1.543h1.653l-1.246 4.512c1.94-1.777 3.532-2.969 4.785-3.599 1.23-.614 2.456-.913 3.679-.913 1.746 0 3.099.664 4.04 2.001.931 1.341 1.416 2.981 1.416 4.935 0 5.321-1.866 10.025-5.527 14.13-3.265 3.622-6.825 5.441-10.657 5.441-.713 0-1.283-.054-1.779-.185-.475-.125-1.141-.415-2.021-.872l-1.442 5.005c-.505 1.806-.771 3.199-.771 4.139 0 .596.189 1.052.609 1.417.395.328 1.354.597 2.857.863l-.248 1.019h-14.938l.279-1.019c1.185-.037 2.17-.41 2.955-1.136.783-.718 1.527-2.289 2.217-4.67l6.774-23.345c.492-1.753.743-2.986.743-3.712 0-.312-.07-.577-.225-.786a1.251 1.251 0 0 0-.67-.463c-.29-.098-.961-.136-2.004-.136l.311-1.083Zm4.355 21.332c.542.908 1.053 1.519 1.485 1.813.425.32.965.467 1.567.467.581 0 1.151-.156 1.726-.497.566-.328 1.264-.973 2.097-1.947.833-.988 1.631-2.245 2.394-3.781.778-1.533 1.386-3.276 1.838-5.233.478-1.967.709-3.837.709-5.594 0-1.438-.243-2.458-.758-3.121-.529-.642-1.139-.971-1.859-.971-.636 0-1.257.176-1.834.501-.834.47-1.808 1.386-2.936 2.696l-4.429 15.667Zm33.421-35.662c1.143 0 2.134.402 2.907 1.17.793.809 1.182 1.777 1.182 2.905 0 1.133-.395 2.108-1.199 2.897-.804.812-1.76 1.198-2.89 1.198-1.117 0-2.062-.386-2.845-1.198-.804-.789-1.203-1.764-1.203-2.897 0-1.128.378-2.096 1.179-2.905a3.979 3.979 0 0 1 2.869-1.17Zm1.719 12.787-5.683 19.735c-.314 1.122-.483 1.873-.483 2.236 0 .198.095.373.252.576.179.147.343.235.525.235.326 0 .635-.125.96-.412.82-.681 1.828-1.925 3.005-3.725l.932.569c-2.794 4.856-5.763 7.293-8.913 7.293-1.207 0-2.154-.346-2.884-1-.703-.674-1.065-1.544-1.065-2.57 0-.695.16-1.561.48-2.619l3.849-13.285c.369-1.259.571-2.235.571-2.881 0-.408-.186-.757-.539-1.08-.35-.311-.833-.478-1.449-.478-.283 0-.607.032-.998.032l.36-1.116 9.43-1.51h1.65Zm2.744 2.501 8.565-2.501c.693.83 1.176 1.631 1.442 2.405.507 1.324.867 3.116 1.05 5.448.382 4.551.664 9.41.82 14.584 1.98-2.61 4.264-6.058 6.797-10.363.779-1.301 1.177-2.522 1.177-3.661 0-.732-.451-1.421-1.34-2.064-.912-.637-1.474-1.161-1.692-1.524-.224-.362-.327-.819-.327-1.413 0-.906.327-1.711 1.013-2.402.68-.686 1.481-1.01 2.447-1.01 1.023 0 1.928.372 2.657 1.15a3.766 3.766 0 0 1 1.125 2.744c0 1.254-.344 2.7-1.04 4.325-.693 1.636-2.31 4.456-4.889 8.427-3.262 5.103-6.482 9.501-9.622 13.222-2.018 2.381-3.66 4.086-4.891 5.135-1.247 1.045-2.534 1.871-3.854 2.48-.794.359-1.595.535-2.358.535-1.067 0-1.967-.372-2.731-1.11a3.611 3.611 0 0 1-1.098-2.645c0-1.024.319-1.878.991-2.595.682-.68 1.471-1.042 2.371-1.042 1.133 0 2.182.587 3.131 1.772.618.805 1.145 1.201 1.542 1.201.421 0 .852-.137 1.248-.378.568-.285 1.349-.972 2.332-2.044.116-2.321.178-4.062.178-5.229 0-1.618-.073-3.854-.23-6.734l-.466-10.587c-.182-1.948-.583-3.351-1.246-4.195-.515-.622-1.199-.944-2.025-.944-.324 0-.682.015-1.077.085v-1.072Zm45.186 16.543.833.738c-1.8 2.163-3.57 3.733-5.316 4.741-2.311 1.329-4.706 1.984-7.199 1.984-1.661 0-3.128-.36-4.418-1.064-1.291-.713-2.237-1.714-2.853-2.991a9.057 9.057 0 0 1-.912-3.965c0-3.038.827-6.017 2.474-8.961 1.658-2.932 3.829-5.257 6.512-6.965 2.709-1.713 5.38-2.561 7.979-2.561 2.109 0 3.672.455 4.727 1.375 1.051.928 1.581 2.069 1.581 3.45 0 1.228-.392 2.289-1.194 3.165-.796.881-1.67 1.319-2.663 1.319-.85 0-1.543-.3-2.115-.848a2.663 2.663 0 0 1-.844-1.985c0-1 .49-1.863 1.483-2.596.685-.518 1.03-.975 1.03-1.363 0-.333-.126-.617-.43-.806-.351-.286-.838-.457-1.423-.457-1.56 0-3.009.63-4.394 1.889-1.803 1.682-3.206 3.793-4.164 6.347-.975 2.565-1.452 4.975-1.452 7.278 0 1.814.485 3.263 1.464 4.348.996 1.07 2.153 1.627 3.524 1.627 1.184 0 2.467-.306 3.835-.918 1.371-.619 2.681-1.538 3.935-2.781Zm61.761-30.984-.275 1.042c-2.287.069-3.856.711-4.718 1.891-.848 1.199-1.671 3.185-2.479 5.94l-6.126 21.445c-.527 1.81-.777 3.069-.777 3.808 0 1.526 1.404 2.352 4.218 2.526l-.303 1.025h-18.14l.294-1.025c1.342 0 2.384-.215 3.167-.621.765-.432 1.373-1.089 1.832-2.018.468-.912 1.08-2.818 1.909-5.724l7.518-26.189H442.07l-3.819 13.082c-1.57 5.359-2.989 9.755-4.28 13.174-1.301 3.411-2.805 5.894-4.52 7.447-1.706 1.547-3.553 2.322-5.535 2.322-1.259 0-2.339-.377-3.225-1.131-.898-.77-1.333-1.703-1.333-2.819 0-.983.36-1.842 1.036-2.564.728-.733 1.618-1.096 2.688-1.096 1.164 0 2.158.609 3.003 1.818.545.841 1.069 1.266 1.5 1.266 1.201 0 2.281-1.101 3.25-3.281.975-2.185 2.608-6.869 4.867-14.012 2.263-7.159 3.41-11.424 3.41-12.768 0-1.662-1.339-2.496-4.003-2.496h-1.029l.317-1.042h31.976Zm4.489 0h30.288l-2.858 10.142h-.989c.042-.539.053-1.005.053-1.414 0-1.928-.57-3.426-1.708-4.492-1.106-1.058-3.025-1.65-5.706-1.819l-8.392 28.375c-.451 1.574-.693 2.715-.693 3.492 0 .712.288 1.281.848 1.689.584.404 1.746.638 3.513.679l-.256 1.025h-18.685l.332-1.025c1.895 0 3.289-.352 4.154-1.082.885-.693 1.676-2.304 2.4-4.778l8.387-28.375c-2.882.104-5.298.73-7.254 1.887-1.95 1.175-3.714 3.125-5.326 5.838h-1.089l2.981-10.142Zm38.814 0h31.725l-.273 1.042c-2.174 0-3.674.474-4.533 1.432-.854.944-1.803 3.315-2.895 7.093l-5.82 20.403c-.534 1.887-.807 3.259-.807 4.177 0 .969.28 1.583.816 1.912.548.308 1.649.489 3.271.552l-3.435 11.937h-1.043c.275-1.149.391-2.324.391-3.463 0-2.326-.532-4.147-1.623-5.456-1.083-1.287-2.991-1.952-5.711-1.952h-10.832c-2.743 0-4.966.245-6.68.805-1.695.544-3.341 1.602-4.935 3.197-1.613 1.585-3.239 3.888-4.891 6.869h-1.017l3.392-11.937a7.104 7.104 0 0 0 3.697-1.012c1.148-.67 2.606-2.166 4.377-4.475 1.784-2.333 3.578-5.391 5.398-9.221 1.802-3.815 3.251-7.457 4.304-10.916 1.045-3.451 1.582-5.838 1.582-7.136 0-1.156-.333-1.913-.991-2.267-.667-.359-1.907-.542-3.767-.542l.3-1.042Zm7.754 2.1-2.169 7.517c-.404 1.435-1.201 3.705-2.403 6.868-1.182 3.144-2.683 6.365-4.501 9.619a92.54 92.54 0 0 1-6.054 9.495h10.905c2.326 0 3.752-.276 4.269-.819.513-.53 1.169-2.246 2.012-5.164l7.886-27.516h-9.945Zm31.431 35.853 7.132-12.805-1.628-12.768h1.628l6.918 12.768-12.312 12.805h-1.738Zm-11.699 0 7.107-12.805-1.767-12.768h1.767l6.828 12.768-12.244 12.805h-1.691M47.206 498.849l25.349 5.245c1.987.419 3.215.548 3.674.383 1.08-.388 1.198-1.902.338-4.547l1.118-.062 3.694 11.315-1.129.048c-.545-1.449-1.291-2.513-2.27-3.159-.975-.653-2.892-1.292-5.763-1.891l-25.086-5.222c-4.195-.858-7.454-1.793-9.808-2.747-2.33-.981-3.847-2.555-4.563-4.733-.637-1.958-.622-3.713.019-5.233.668-1.544 1.55-2.514 2.669-2.922a3.05 3.05 0 0 1 2.221.035c.728.284 1.216.854 1.485 1.64.494 1.527-.17 2.837-1.972 3.912-1.629.96-2.251 2.023-1.868 3.202.493 1.51 2.315 2.573 5.509 3.235l22.395-15.542c2.654-1.832 4.226-3.237 4.689-4.226.475-1.011.536-2.216.196-3.631l1.129-.072 4.574 14.079-1.125.08c-.985-3.052-2.334-4.242-4.006-3.637-.431.157-1.141.582-2.131 1.244l-19.338 13.206Zm11.07 37.553c-3.035-.702-5.507-1.715-7.384-3.073-1.886-1.344-3.312-3.05-4.274-5.141-1.154-2.507-1.368-4.836-.613-6.946.76-2.106 2.311-3.802 4.676-5.017 2.676-1.396 5.656-1.979 8.947-1.795 3.28.16 6.333 1.105 9.119 2.828 2.797 1.71 4.762 3.802 5.905 6.252.873 1.928 1.153 3.572.79 4.943-.354 1.356-1.116 2.348-2.263 2.942-1.088.56-2.159.707-3.244.422-.827-.178-1.406-.643-1.742-1.359-.25-.545-.286-1.103-.099-1.637a2.067 2.067 0 0 1 1.051-1.228 2.123 2.123 0 0 1 1.023-.271c.326-.016.803.082 1.386.299.588.213.983.322 1.203.322.213 0 .417-.05.603-.161.365-.189.61-.51.691-.967.112-.696-.041-1.515-.481-2.451-.784-1.726-2.195-3.133-4.182-4.199-1.985-1.082-4.364-1.646-7.147-1.707-3.374-.054-6.401.619-9.088 2.006-1.787.911-2.959 2.157-3.528 3.705-.577 1.569-.446 3.235.372 5.002.623 1.357 1.582 2.535 2.877 3.528 1.283.982 3.2 1.842 5.726 2.591l-.324 1.112Zm36.474-.563c.396.708.495 1.45.29 2.25-.202.794-.65 1.399-1.357 1.857-.688.446-1.406.558-2.193.38-.767-.183-1.347-.634-1.739-1.306-.4-.694-.497-1.452-.278-2.266.215-.804.654-1.421 1.339-1.833.699-.476 1.427-.612 2.191-.408.755.174 1.34.617 1.747 1.326Zm-9.755 6.629-20.388 6.14c-1.377.422-2.185.694-2.415.846-.277.163-.448.381-.519.648-.075.273-.051.513.071.73.139.269.448.482.916.664 1.301.485 2.917.769 4.858.863l-.072 1.262c-2.376-.052-4.607-.473-6.677-1.269-1.545-.588-2.598-1.396-3.192-2.438-.4-.694-.51-1.387-.353-2.087.15-.688.548-1.24 1.164-1.636.618-.376 1.764-.833 3.446-1.318l13.086-3.833c2.145-.637 3.436-1.094 3.914-1.378.361-.263.592-.565.66-.985.11-.402 0-.835-.247-1.284-.215-.362-.737-1.095-1.586-2.133l.981-.619 6.353 7.827Zm16.993 44.113c1.58 1.9 2.372 3.773 2.372 5.547-.01 1.787-.633 3.28-1.836 4.549-1.626 1.648-3.758 2.287-6.382 1.922-2.614-.37-4.977-1.686-7.05-3.97-4.104-4.482-3.895-9.048.635-13.681 3.313-3.382 7.355-5.17 12.147-5.393 4.802-.227 8.692 1.315 11.685 4.592 1.489 1.631 2.286 3.127 2.413 4.487.107 1.388-.285 2.501-1.174 3.427-2.196 2.242-6.476 1.761-12.81-1.48Zm-5.154-4.57c3.911 2.544 7.12 4.011 9.642 4.387 2.528.379 4.447-.115 5.77-1.475.489-.501.761-1.112.876-1.903.103-.794-.164-1.563-.831-2.285-2.722-2.972-7.873-2.534-15.457 1.276Zm-1.643.868c-1.624.866-3.172 2.039-4.587 3.502-1.35 1.37-2.015 2.676-2.029 3.947 0 1.284.441 2.41 1.325 3.362 1.208 1.319 2.733 1.877 4.585 1.643 1.837-.251 3.493-1.142 4.952-2.615.954-.973 1.478-2.101 1.54-3.381.091-1.276-.33-2.396-1.214-3.371-1.091-1.187-2.616-2.221-4.572-3.087Zm42.967 20.032-14.349 11.602c-2.138 1.73-3.415 2.881-3.813 3.456-.208.29-.319.554-.333.763.014.215.082.396.241.534.26.2.622.288 1.108.268.486 0 1.975-.413 4.48-1.195l.257 1.098c-2.632 1.108-4.916 1.661-6.838 1.65-1.263-.028-2.261-.336-3.031-.942-.574-.458-.904-.997-.962-1.609-.072-.636.091-1.235.515-1.807.392-.568 1.014-1.206 1.857-1.992 1.112-1 3.672-3.133 7.689-6.312-5.784 2.572-10.157 4.042-13.113 4.449-2.939.376-5.128 0-6.586-1.174-.681-.543-1.079-1.263-1.183-2.169-.093-.898.149-1.742.722-2.569.88-1.217 2.553-2.854 5.012-4.886l7.369-6.081c1.784-1.431 2.819-2.38 3.143-2.82a.812.812 0 0 0 .162-.661.732.732 0 0 0-.25-.538c-.305-.237-.728-.367-1.193-.367-.49 0-1.862.348-4.067 1.046l-.313-1.085c2.475-1.026 4.653-1.507 6.545-1.396 1.463.049 2.582.396 3.384 1.026.562.448.865.999.947 1.655.066.648-.109 1.3-.553 1.904-.621.879-2.067 2.24-4.273 4.044l-7.774 6.308c-2.128 1.699-3.393 2.847-3.801 3.42-.23.31-.315.637-.261.962.049.351.227.649.53.889.502.401 1.339.634 2.505.706 1.171.099 3.083-.273 5.728-1.106 2.648-.814 4.98-1.694 7.004-2.655 2.024-.934 4.785-2.826 8.277-5.617l1.839-1.487 3.379 2.688Zm17.821-7.457 1.024-.754c3.094 3.51 4.877 7.752 5.352 12.724.467 4.982-.439 9.726-2.733 14.268-2.675 5.343-6.457 9.094-11.338 11.267-4.885 2.19-9.331 2.139-13.35-.113-2.269-1.28-3.692-3.121-4.229-5.527-.547-2.385-.181-4.853 1.097-7.39 2.112-4.221 5.566-7.189 10.35-8.9 4.791-1.708 8.707-1.708 11.739-.003 1.712.971 2.869 2.49 3.485 4.612 3.569-7.941 3.108-14.675-1.397-20.184Zm-2.848 16.989c-2.401-1.333-5.536-.676-9.492 1.97-3.943 2.644-6.838 5.81-8.705 9.509-.916 1.835-1.23 3.433-.916 4.854.309 1.392 1.123 2.471 2.447 3.211 2.151 1.22 5.185.519 9.134-2.097 3.935-2.605 6.873-5.84 8.78-9.667 1.863-3.677 1.436-6.266-1.248-7.78Zm34.592 12.788-9.735 16.087c-1.456 2.407-2.279 3.947-2.474 4.617-.108.361-.12.64-.05.846.083.205.194.345.395.404.305.097.673.063 1.133-.137.452-.175 1.726-1.113 3.82-2.735l.601.923c-2.13 1.999-4.082 3.367-5.889 4.035-1.206.441-2.242.491-3.163.199-.7-.224-1.177-.602-1.426-1.169-.275-.567-.312-1.194-.12-1.875.198-.689.573-1.511 1.123-2.539.704-1.349 2.434-4.268 5.181-8.714-4.61 4.501-8.242 7.492-10.874 8.897-2.63 1.438-4.838 1.865-6.567 1.306-.821-.269-1.435-.817-1.823-1.618-.39-.814-.427-1.704-.161-2.683.435-1.456 1.479-3.597 3.136-6.391l4.955-8.375c1.211-1.993 1.88-3.253 2.038-3.787.062-.253.062-.468-.054-.687-.104-.216-.233-.357-.416-.403-.361-.13-.798-.097-1.256.079-.447.171-1.617.996-3.463 2.447l-.652-.902c1.989-1.864 3.893-3.079 5.704-3.685 1.376-.467 2.558-.541 3.505-.25.671.231 1.141.628 1.437 1.202.266.602.301 1.275.086 1.991-.305 1.068-1.205 2.87-2.705 5.348l-5.26 8.731c-1.451 2.379-2.271 3.907-2.474 4.604-.108.373-.089.705.08 1.004.155.301.412.506.778.627.602.182 1.458.119 2.588-.227 1.128-.354 2.803-1.395 5.027-3.108 2.222-1.729 4.119-3.401 5.715-5.037 1.588-1.619 3.584-4.392 5.962-8.288l1.251-2.046 4.047 1.309Zm47.213 22.406c-1.799 2.651-3.656 4.666-5.57 5.978-1.904 1.292-3.962 2.026-6.159 2.134-2.627.153-4.732-.549-6.283-2.115-1.537-1.561-2.414-3.739-2.548-6.508-.145-3.131.489-6.286 1.929-9.4 1.438-3.147 3.453-5.739 6.033-7.77 2.605-2.059 5.174-3.147 7.764-3.295 2.027-.107 3.565.29 4.613 1.154 1.044.865 1.615 1.997 1.658 3.361.077 1.255-.215 2.376-.885 3.321-.483.723-1.112 1.113-1.874 1.156-.569.027-1.053-.16-1.475-.537-.394-.392-.604-.909-.634-1.507-.014-.4.049-.763.153-1.103.117-.328.398-.74.81-1.23.412-.49.654-.838.754-1.042.061-.2.104-.431.091-.667a1.326 1.326 0 0 0-.579-1.041c-.559-.374-1.322-.548-2.312-.49-1.833.104-3.588.921-5.3 2.438-1.725 1.5-3.145 3.603-4.275 6.289-1.361 3.258-1.964 6.445-1.809 9.604.101 2.107.727 3.725 1.863 4.9 1.131 1.169 2.63 1.683 4.493 1.598 1.426-.095 2.818-.562 4.191-1.424 1.359-.881 2.872-2.409 4.501-4.566l.85.762Zm10.536-23.246.389 14.434c.638-3.621 1.275-6.403 1.9-8.317.989-2.996 2.132-5.306 3.408-6.905.755-.941 1.642-1.58 2.689-1.911.895-.277 1.715-.214 2.473.22.766.454 1.306 1.164 1.601 2.151.264.952.428 2.29.474 3.973l.257 8.105c1.185-6.948 2.693-12.037 4.597-15.293 1.055-1.811 2.294-2.94 3.696-3.39.814-.273 1.58-.169 2.267.282.715.443 1.262 1.323 1.635 2.627.337 1.144.52 2.402.571 3.779l.392 12.439c.069 2.708.153 4.175.241 4.462.067.271.221.48.441.642.148.096.299.107.489.051.169-.051.428-.329.771-.851.774-1.195 1.384-2.645 1.863-4.345l1.056.328c-.223.946-.686 2.27-1.424 4.017-.721 1.724-1.424 2.972-2.085 3.72-.652.767-1.321 1.242-1.998 1.471-.616.18-1.216.126-1.765-.209-.549-.339-.932-.854-1.119-1.54-.281-.955-.467-2.961-.563-6.041l-.31-10.271a204.534 204.534 0 0 0-.166-3.909 6.659 6.659 0 0 0-.242-1.102c-.142-.501-.351-.858-.622-1.07-.287-.212-.581-.269-.834-.188-.756.25-1.426.912-2.021 2.053-1.734 3.279-3.009 7.526-3.85 12.715-.538 3.421-.764 7.669-.644 12.706l-4.019 1.296-.603-19.33c-.052-2.098-.185-3.458-.37-4.108-.146-.528-.375-.89-.645-1.081a.893.893 0 0 0-.824-.165c-.59.192-1.132.633-1.658 1.336-.854 1.1-1.742 3.189-2.704 6.254-.959 3.069-1.55 5.885-1.812 8.48-.152 1.229-.191 5.056-.161 11.451l-3.949 1.278-.597-20.723-.067-2.696c.009-.409-.016-.686-.073-.887-.122-.421-.405-.762-.857-.981-.468-.219-.973-.256-1.522-.066-.217.066-.83.381-1.819.968l-.541-1.026 8.654-4.833Zm53.32-12.946c1.328 2.75 1.974 5.819 1.955 9.235-.005 3.406-.817 6.522-2.404 9.365-1.608 2.841-3.5 4.851-5.748 6.046-2.266 1.223-4.483 1.445-6.697.603-2.205-.832-3.927-2.521-5.159-5.086-1.286-2.68-1.899-5.772-1.813-9.235.094-3.457.951-6.597 2.52-9.447 1.597-2.854 3.466-4.852 5.674-6.034 2.184-1.171 4.362-1.357 6.554-.499 2.177.803 3.888 2.5 5.118 5.052Zm-5.056.322c-.827-1.707-1.831-2.806-3.007-3.305-1.185-.504-2.39-.431-3.578.209-2.446 1.311-3.749 4.459-3.936 9.419-.181 4.947.637 9.328 2.487 13.157.835 1.737 1.868 2.877 3.139 3.397 1.238.505 2.462.43 3.678-.207 2.34-1.275 3.602-4.372 3.795-9.316.199-4.918-.654-9.385-2.578-13.354Zm4.584-9.428 5.409-7.294.91-.778 14.565 16.516-3.304-25.568 3.501-3.089 8.344 18.984c.852 1.963 1.349 3.035 1.488 3.224.408.508.829.575 1.224.211.685-.609.851-2.538.533-5.803l.987-.097c.335 2.192.303 4.291-.102 6.346-.395 2.032-.956 3.374-1.682 4.028-1.19 1.041-2.363.83-3.539-.654-.529-.665-1.27-2.081-2.238-4.287l-6.972-15.92 3.734 28.867-.97.837-16.886-18.655c5.213 12.19 7.928 19.596 8.13 22.208.215 2.628-.337 4.51-1.64 5.657-1.294 1.145-2.414 1.141-3.352-.037-.412-.537-.598-1.128-.551-1.785.049-.665.29-1.2.748-1.61.388-.355 1.069-.564 1.988-.632.462-.028.773-.136.981-.326.336-.293.414-1.204.198-2.723-.204-1.552-1.368-4.906-3.421-10.091-2.066-5.196-3.34-8.081-3.82-8.685-.574-.722-1.323-.673-2.253.143-.498.445-1.063 1.126-1.715 2.057l-.295-1.044Zm39.46-42.126 11.062 18.253 1.576 2.386c.149.217.288.368.421.503.226.217.497.336.78.369a.717.717 0 0 0 .577-.267c.162-.181.264-.542.304-1.05.05-.98-.172-2.564-.679-4.767l1.154-.265c.642 2.444.903 4.578.792 6.399-.123 1.815-.569 3.167-1.339 4.069-.534.638-1.092.958-1.677.979-.576.017-1.174-.241-1.759-.818-.694-.681-1.498-1.738-2.388-3.147l-1.227-2.005c.848 4.26 1.078 7.667.693 10.199-.281 1.835-.895 3.31-1.838 4.412-.904 1.068-2.124 1.572-3.67 1.504-1.526-.042-3.058-.809-4.597-2.281-2.301-2.177-4.132-5.193-5.508-9.007-1.356-3.83-1.884-7.53-1.589-11.148.213-2.817.95-4.991 2.211-6.495.774-.9 1.629-1.392 2.585-1.558.992-.145 2.125.123 3.466.843l-1.787-3.148 2.437-3.96Zm-5.545 8.861c-.778.935-1.177 2.349-1.217 4.22-.028 2.657.664 5.728 2.082 9.169 1.435 3.478 3.12 6.125 5.072 7.993.982.948 1.98 1.42 2.964 1.471.997.049 1.768-.255 2.314-.894 1.366-1.583 1.673-4.429.935-8.52-.969-5.442-3.084-9.705-6.335-12.803-1.222-1.177-2.326-1.784-3.289-1.814-.961-.059-1.794.334-2.526 1.178Zm12.581-19.373 9.421 10.423c-1.826-3.133-3.113-5.643-3.848-7.521-1.164-2.902-1.77-5.429-1.849-7.536-.034-1.228.241-2.336.802-3.317.459-.837 1.14-1.358 1.978-1.584.859-.22 1.7-.066 2.526.467.845.52 1.782 1.396 2.883 2.613l5.35 5.836c-3.549-5.982-5.646-10.847-6.291-14.595-.359-2.104-.146-3.809.6-5.15.445-.768 1.055-1.25 1.863-1.394.809-.17 1.785.098 2.864.796.968.616 1.915 1.422 2.819 2.413l8.18 8.959c1.761 1.964 2.771 3.002 3.001 3.155a.972.972 0 0 0 .724.156.521.521 0 0 0 .406-.301c.097-.166.099-.557.037-1.184-.201-1.427-.644-2.936-1.372-4.544l1.008-.496c.424.849.901 2.157 1.489 3.972.536 1.819.808 3.243.793 4.26-.006 1.03-.204 1.857-.568 2.502-.328.583-.813.95-1.422 1.089-.638.129-1.225.034-1.819-.358-.801-.498-2.22-1.865-4.241-4.087l-6.744-7.4c-1.546-1.707-2.411-2.632-2.593-2.793a11.513 11.513 0 0 0-.873-.665c-.421-.272-.803-.387-1.143-.348-.355.07-.586.214-.743.472-.391.702-.465 1.677-.201 2.93.804 3.661 2.543 7.739 5.204 12.169 1.763 2.948 4.291 6.243 7.567 9.907l-2.174 3.805-12.678-13.938c-1.369-1.516-2.33-2.437-2.877-2.782-.453-.289-.84-.41-1.164-.353-.331.05-.569.179-.723.459-.319.549-.452 1.29-.397 2.162.074 1.43.725 3.601 1.953 6.564 1.236 2.941 2.574 5.482 4.036 7.592.669.996 3.053 3.871 7.113 8.612l-2.104 3.752-13.567-14.988-1.766-1.951c-.248-.311-.456-.519-.603-.621-.369-.221-.783-.278-1.28-.1-.481.14-.88.473-1.178 1.004-.111.21-.362.874-.713 2.016l-1.081-.377 3.395-9.702Zm33.541-47.169c2.668 1.267 5.026 3.215 7.026 5.865 2.016 2.664 3.246 5.625 3.708 8.891.439 3.272.176 6.105-.843 8.524-1.036 2.46-2.658 4.101-4.865 4.921-2.227.825-4.557.638-7.039-.52-2.609-1.233-4.91-3.215-6.911-5.968-1.986-2.762-3.208-5.758-3.683-9.024-.444-3.269-.176-6.089.821-8.446 1.007-2.374 2.596-3.981 4.796-4.78 2.171-.808 4.503-.628 6.99.537Zm-3.725 3.621c-1.655-.784-3.082-.971-4.319-.588-1.224.421-2.11 1.259-2.639 2.547-1.123 2.655-.277 5.95 2.541 9.947 2.802 3.966 6.046 6.83 9.761 8.571 1.688.782 3.177.989 4.441.55 1.297-.437 2.211-1.312 2.763-2.6 1.054-2.555.196-5.808-2.601-9.778-2.782-3.968-6.115-6.852-9.947-8.649Zm-1.178-15.299 5.35-16.422 16.695 12.205c1.281.935 2.155 1.492 2.607 1.652.623.231 1.023.073 1.203-.463.161-.478.064-1.05-.291-1.793-.35-.709-1.091-1.864-2.205-3.456l.912-.726c1.573 2.259 2.623 4.144 3.179 5.648.587 1.517.644 2.921.216 4.224-.522 1.588-1.582 2.102-3.203 1.503-.831-.284-2.4-1.289-4.68-2.991l-14.306-10.452-1.104 3.332c-.42 1.361-.647 2.244-.596 2.638.036.418.342.846.869 1.369.558.482 1.953 1.573 4.225 3.258 6.505 4.8 10.604 8.266 12.316 10.33 1.697 2.107 2.253 3.995 1.697 5.714-.603 1.831-1.625 2.487-3.057 1.973a2.436 2.436 0 0 1-1.317-1.099c-.292-.518-.345-1.061-.158-1.663.19-.555.63-1.052 1.32-1.494.444-.258.707-.554.821-.86.175-.587-.1-1.371-.846-2.362-.739-1.014-3.335-3.223-7.752-6.644-4.42-3.421-7.026-5.259-7.776-5.538-1.178-.419-2.226.49-3.165 2.78l-.954-.663Zm20.253-44.004c2.844.648 5.545 2.042 8.023 4.185 2.485 2.161 4.262 4.781 5.365 7.885 1.089 3.104 1.379 5.93.855 8.516-.527 2.648-1.795 4.598-3.808 5.888-1.992 1.292-4.307 1.63-6.965 1.04-2.791-.631-5.439-2.071-7.924-4.326-2.489-2.263-4.286-4.934-5.371-8.027-1.101-3.091-1.382-5.897-.881-8.44.514-2.538 1.772-4.435 3.763-5.703 1.976-1.29 4.288-1.618 6.943-1.018Zm-2.949 4.332c-1.761-.397-3.202-.269-4.32.4-1.119.667-1.822 1.684-2.1 3.082-.572 2.827.914 5.87 4.444 9.141 3.532 3.281 7.275 5.362 11.239 6.255 1.812.418 3.292.25 4.46-.444 1.173-.716 1.892-1.768 2.19-3.171.548-2.703-.959-5.692-4.476-8.956-3.5-3.285-7.311-5.372-11.437-6.307Zm.1-14.4-.847.779c-2.391-3.655-3.339-7.259-2.861-10.848.339-2.586 1.107-4.484 2.279-5.655 1.187-1.173 2.522-1.647 4.056-1.43 1.115.176 2.147.742 3.115 1.719.937.989 2.016 3.703 3.24 8.169 1.186 4.36 2.342 7.163 3.447 8.379 1.117 1.248 2.204 1.937 3.24 2.08 1.118.172 2.186-.143 3.159-.918.949-.764 1.585-2.104 1.841-4.006.353-2.649-.529-5.769-2.661-9.319l.849-.678c2.854 3.872 3.978 8.142 3.353 12.798-.352 2.631-1.098 4.526-2.261 5.713-1.169 1.186-2.513 1.652-4.03 1.426-1.43-.223-2.709-.967-3.869-2.212-1.139-1.256-2.232-4.225-3.27-8.845-.825-3.702-1.746-6.159-2.744-7.423-1-1.246-2.217-1.978-3.628-2.198-1.123-.165-2.082.131-2.823.907-.778.794-1.254 1.94-1.455 3.421-.331 2.457.283 5.161 1.87 8.141Zm-13.495-32.574c.044-.825.348-1.491.945-2.028a2.703 2.703 0 0 1 2.112-.745c.783.037 1.46.365 1.995.98.564.618.804 1.321.759 2.135-.021.791-.353 1.466-.968 2.015-.608.549-1.277.797-2.081.763-.818-.052-1.502-.365-2.025-.973-.535-.611-.796-1.311-.737-2.147Zm11.585.265 20.153 6.953c1.357.479 2.181.731 2.455.731.324.02.569-.052.785-.225.182-.2.299-.399.315-.664.01-.286-.133-.647-.422-1.072-.807-1.171-2.002-2.369-3.569-3.601l.715-.979a20.342 20.342 0 0 1 4.88 4.996c.973 1.374 1.419 2.684 1.355 3.901-.039.823-.309 1.441-.805 1.93a2.361 2.361 0 0 1-1.828.668c-.716-.037-1.904-.347-3.553-.935l-12.889-4.555c-2.098-.731-3.424-1.142-3.961-1.163-.445-.039-.799.092-1.083.413-.279.277-.444.693-.467 1.219-.017.428.039 1.332.188 2.705l-1.148-.065-1.121-10.257Zm.434-19.276 20.378 6.231c1.373.402 2.199.619 2.459.619.33.014.569-.067.778-.262a.874.874 0 0 0 .297-.666c0-.28-.14-.64-.451-1.055-.852-1.147-2.078-2.302-3.669-3.471l.679-1.009c1.991 1.366 3.675 2.983 5.023 4.816 1.029 1.357 1.51 2.644 1.49 3.855-.025.809-.257 1.449-.743 1.946-.475.511-1.09.747-1.811.744-.729-.011-1.904-.288-3.58-.799l-13.013-4.07c-2.128-.665-3.486-1.025-4.017-1.037a1.37 1.37 0 0 0-1.059.461c-.289.285-.441.713-.441 1.227-.001.436.09 1.346.294 2.698l-1.138-.015-1.476-10.213Zm-12.615-5.353c.017-.872.327-1.636.953-2.217.628-.609 1.383-.911 2.256-.878.854.008 1.583.331 2.176.954.608.617.902 1.372.89 2.251-.008.871-.331 1.608-.943 2.219-.637.602-1.356.901-2.228.88-.874-.004-1.621-.333-2.239-.946a3.072 3.072 0 0 1-.865-2.263Zm-.179 10.498c.026-.897.343-1.643.958-2.251.629-.595 1.374-.884 2.263-.872.857.01 1.581.325 2.179.944.6.655.897 1.403.887 2.278a3.243 3.243 0 0 1-.953 2.228c-.616.593-1.362.903-2.225.876-.885-.007-1.629-.324-2.22-.952a3.092 3.092 0 0 1-.889-2.251" fill="#3d3f96"/></symbol><symbol fill="none" viewBox="0 0 16 16" id="call" xmlns="http://www.w3.org/2000/svg"><g clip-path="url(#aa)" fill="#fff"><path d="m15.69 12.723-1.774-1.183-1.577-1.051a.699.699 0 0 0-.938.152l-.976 1.255a.695.695 0 0 1-.887.184c-.662-.369-1.445-.716-3.172-2.445-1.728-1.73-2.077-2.51-2.445-3.172a.695.695 0 0 1 .184-.888L5.359 4.6a.698.698 0 0 0 .153-.938l-1.02-1.529L3.279.311A.698.698 0 0 0 2.338.1L.936.94A1.712 1.712 0 0 0 .16 1.946c-.383 1.397-.46 4.479 4.478 9.417 4.939 4.94 8.02 4.862 9.417 4.478.423-.12.783-.398 1.006-.777l.84-1.401a.698.698 0 0 0-.21-.94zM9.103 2.483a4.695 4.695 0 0 1 4.69 4.69.276.276 0 1 0 .552 0A5.247 5.247 0 0 0 9.103 1.93a.276.276 0 0 0 0 .552z"/><path d="M9.103 4.138a3.038 3.038 0 0 1 3.035 3.034.276.276 0 1 0 .552 0 3.59 3.59 0 0 0-3.587-3.586.276.276 0 1 0 0 .552z"/><path d="M9.103 5.793a1.38 1.38 0 0 1 1.38 1.38.276.276 0 1 0 .551 0 1.933 1.933 0 0 0-1.93-1.932.276.276 0 0 0 0 .552z"/></g><defs><clipPath id="aa"><path fill="#fff" d="M0 0h16v16H0z"/></clipPath></defs></symbol><symbol fill="none" viewBox="0 0 50 50" id="clean" xmlns="http://www.w3.org/2000/svg"><g clip-path="url(#ba)" fill="#fff"><path d="M49.852 27.995c-.124-.248-.434-.372-.683-.434-1.426 0-13.702-.496-13.702-14.757a.82.82 0 0 0-.807-.806.82.82 0 0 0-.806.806c0 14.261-12.276 14.757-13.64 14.757a.704.704 0 0 0-.497.186c-.124.062-.186.186-.248.248a.92.92 0 0 0 0 .806c.124.248.434.434.744.434h.062c1.427 0 13.641.496 13.641 14.757a.82.82 0 0 0 .806.806.82.82 0 0 0 .806-.806c0-14.199 12.215-14.757 13.641-14.757.31 0 .559-.186.745-.434a.763.763 0 0 0-.063-.806zm-15.192 9.92c-1.798-5.89-6.2-8.432-9.672-9.548 3.472-1.116 7.874-3.658 9.672-9.549 1.799 5.89 6.2 8.433 9.673 9.55-3.472 1.115-7.874 3.657-9.673 9.548zM24.43 11.874c.434 0 .806-.372.806-.868a.82.82 0 0 0-.806-.806c-.744 0-7.44-.248-7.44-8.06a.82.82 0 0 0-.807-.807.82.82 0 0 0-.806.806c0 7.813-6.696 8.06-7.44 8.06h-.062c-.434.063-.745.373-.745.807a.82.82 0 0 0 .807.806c.806 0 7.44.248 7.44 8.06a.82.82 0 0 0 .806.807c.372.062.744-.31.744-.744 0-7.813 6.697-8.061 7.44-8.061h.063zm-8.309 3.534c-.992-2.356-2.79-3.658-4.464-4.402 1.798-.744 3.472-2.17 4.464-4.402.992 2.356 2.79 3.658 4.464 4.402-1.798.744-3.472 2.17-4.464 4.402zM17.3 38.164c-.745 0-7.441-.248-7.441-8.06a.82.82 0 0 0-.806-.807.82.82 0 0 0-.806.806c0 7.813-6.697 8.06-7.44 8.06H.743c-.434.063-.744.373-.744.807a.82.82 0 0 0 .806.806c.806 0 7.44.248 7.44 8.06a.82.82 0 0 0 .807.807c.372.124.744-.248.744-.745 0-7.812 6.696-8.06 7.44-8.06h.062c.434 0 .806-.372.806-.868a.82.82 0 0 0-.806-.806zm-8.31 5.27c-1.053-2.356-2.79-3.658-4.464-4.402 1.798-.744 3.473-2.17 4.465-4.402.992 2.356 2.79 3.658 4.464 4.402-1.798.744-3.472 2.17-4.464 4.402z"/></g><defs><clipPath id="ba"><path fill="#fff" d="M0 0h50v50H0z"/></clipPath></defs></symbol><symbol viewBox="0 0 512 512" id="clock" xmlns="http://www.w3.org/2000/svg"><g fill="#FFF"><path d="M25.602 512h42.664a25.47 25.47 0 0 0 18.945-8.535h214.016a68.128 68.128 0 0 0 35.492-9.957l159.922-97.356a31.974 31.974 0 0 0 14.746-21.215 31.422 31.422 0 0 0-5.344-24.515 8.225 8.225 0 0 0-.496-.727 31.843 31.843 0 0 0-35.625-11.093l-56.832 18.945c49.992-49.05 68.515-121.856 48.043-188.832-20.469-66.977-76.528-116.988-145.399-129.707V25.602C315.734 11.46 304.274 0 290.133 0h-17.067c-14.136 0-25.601 11.46-25.601 25.602v13.406a187.613 187.613 0 0 0-137.88 259.66H92.298a25.6 25.6 0 0 0-24.031-17.066H25.602C11.46 281.602 0 293.062 0 307.199v179.2C0 500.538 11.46 512 25.602 512zM264.535 25.602a8.533 8.533 0 0 1 8.531-8.536h17.067a8.534 8.534 0 0 1 8.535 8.536v11.09c-5.625-.512-11.309-.81-17.066-.81-5.762 0-11.446.298-17.067.81zM110.934 223.574c.004-83.855 60.93-155.285 143.734-168.515 82.8-13.235 162.953 35.648 189.094 115.324 26.14 79.676-9.473 166.539-84.024 204.93l-47.734 15.906a25.639 25.639 0 0 1-8.106 1.316H299a39.174 39.174 0 0 0 2.184-16.82c68.71-8.727 123.109-62.305 132.886-130.875 9.774-68.567-27.492-135.211-91.023-162.79-63.535-27.581-137.668-9.288-181.082 44.677-43.414 53.964-45.402 130.293-4.86 186.445a86.636 86.636 0 0 0-27.484-11.996 171.39 171.39 0 0 1-18.687-77.602zm88.558 108.824a136.671 136.671 0 0 1-31.496-33.375l7.024-4.058a8.547 8.547 0 0 0 4.316-7.403 8.54 8.54 0 0 0-4.285-7.417 8.543 8.543 0 0 0-8.567.039l-7.023 4.054a136.261 136.261 0 0 1-14.113-52.133h8.254c4.71 0 8.53-3.82 8.53-8.53a8.533 8.533 0 0 0-8.53-8.536H145.5a135.438 135.438 0 0 1 13.96-52.121l7.024 4.047a8.536 8.536 0 0 0 12.852-7.383 8.536 8.536 0 0 0-4.316-7.398l-7.094-4.086a137.734 137.734 0 0 1 38.187-38.196l4.098 7.082a8.533 8.533 0 0 0 7.398 4.266 8.347 8.347 0 0 0 4.266-1.145A8.533 8.533 0 0 0 225 108.45l-4.055-7.012a135.369 135.369 0 0 1 52.121-13.96v8.097c0 4.711 3.82 8.531 8.536 8.531 4.71 0 8.53-3.82 8.53-8.53v-8.098a135.388 135.388 0 0 1 52.13 13.96l-4.051 7.012c-2.356 4.082-.957 9.301 3.121 11.656a8.37 8.37 0 0 0 4.27 1.145 8.538 8.538 0 0 0 7.398-4.266l4.094-7.082a137.734 137.734 0 0 1 38.187 38.196l-7.09 4.086a8.533 8.533 0 1 0 8.531 14.781l7.024-4.047a135.359 135.359 0 0 1 13.953 52.121h-8.097a8.534 8.534 0 1 0 0 17.066h8.113a135.333 135.333 0 0 1-13.953 52.149l-7.047-4.07a8.529 8.529 0 0 0-12.848 7.379 8.535 8.535 0 0 0 4.313 7.402l7.015 4.05a137.585 137.585 0 0 1-38.187 38.11l-4.02-6.969a8.528 8.528 0 0 0-7.398-4.316 8.529 8.529 0 0 0-7.38 12.848l4.071 7.05a135.398 135.398 0 0 1-46.355 13.414c0-.07-.059-.144-.102-.215l-.765-1.28a51.482 51.482 0 0 0-43.907-24.856h-44.644a68.978 68.978 0 0 1-7.016-.403zm-46.933-1.468a86.743 86.743 0 0 0 53.949 18.937h44.637a34.294 34.294 0 0 1 29.261 16.563l.766 1.273a22.3 22.3 0 0 1-1.277 24.832h-51.84a85.006 85.006 0 0 0-47.336 14.336l-6.254 4.164c-3.922 2.613-4.98 7.914-2.363 11.836 2.613 3.918 7.914 4.977 11.835 2.363l6.247-4.164a68.004 68.004 0 0 1 37.87-11.468h75.844c.743 0 1.47-.137 2.2-.18.172 0 .316.094.496.094h.793c1.195-.114 2.27-.23 3.472-.446h.121c2.176-.36 4.32-.886 6.418-1.578l157.961-52.66a14.72 14.72 0 0 1 16.11 4.5c.144.246.316.484.488.723a14.843 14.843 0 0 1-4.148 21.59l-159.957 97.289a51.215 51.215 0 0 1-26.625 7.464H93.867V315.734h15.36a69.578 69.578 0 0 1 43.308 15.196zM17.066 307.2c0-4.712 3.82-8.532 8.536-8.532h42.664a8.533 8.533 0 0 1 8.535 8.531v179.2a8.534 8.534 0 0 1-8.535 8.535H25.602a8.534 8.534 0 0 1-8.536-8.536zm0 0" data-original="#000000" class="cactive-path" data-old_color="#000000"/><path d="M281.602 257.707c15.515-.059 29.039-10.574 32.921-25.602h35.344a8.533 8.533 0 0 0 0-17.066h-35.344a34.135 34.135 0 0 0-24.39-24.387v-60.945a8.533 8.533 0 1 0-17.067 0v60.945c-16.625 4.278-27.468 20.262-25.3 37.29 2.168 17.03 16.668 29.785 33.836 29.765zm0-51.2c9.425 0 17.066 7.641 17.066 17.067s-7.64 17.067-17.066 17.067c-9.426 0-17.067-7.641-17.067-17.067s7.64-17.066 17.067-17.066zm0 0" data-original="#000000" class="cactive-path" data-old_color="#000000"/></g></symbol><symbol fill="none" viewBox="0 0 32 32" id="close" xmlns="http://www.w3.org/2000/svg"><path d="M23.884 6.706 16 14.59 8.116 6.706a.998.998 0 0 0-1.41 1.41L14.586 16l-7.882 7.882a.997.997 0 1 0 1.41 1.412L16 17.412l7.884 7.884a.998.998 0 0 0 1.41-1.41l-7.884-7.884 7.884-7.886a.997.997 0 1 0-1.41-1.412v.002Z" fill="#FCFCFC"/></symbol><symbol fill="none" viewBox="0 0 50 50" id="doctor" xmlns="http://www.w3.org/2000/svg"><path d="m20.597 23.558-8.612 3.34-.014.005c-.157.065-3.866 1.639-3.866 5.97V48.13c0 1.03.84 1.869 1.87 1.869h13.194a.732.732 0 1 0 0-1.465h-1.603V28.26a6.008 6.008 0 0 0 6.703 0v20.275h-1.682a.732.732 0 1 0 0 1.465h13.351c1.031 0 1.87-.839 1.87-1.87v-7.5a.732.732 0 1 0-1.465 0v7.5a.405.405 0 0 1-.405.405h-2.761V35.317a.732.732 0 1 0-1.465 0v13.218h-5.978v-.59c.2.06.414.093.636.093a.733.733 0 0 0 0-1.464c-.345 0-.636-.23-.636-.503v-5.41c0-.273.291-.503.636-.503h2.176c.345 0 .636.23.636.503v5.41c0 .273-.291.503-.636.503a.732.732 0 1 0 0 1.464c1.159 0 2.101-.882 2.101-1.967v-5.41c0-1.085-.942-1.968-2.1-1.968h-.356v-2.646l1.377-1.753a1.341 1.341 0 0 0-.249-1.905l-1.226-.938 2.228-2.053c.488-.448.58-1.174.222-1.724l-.451-.692 1.694.657 1.603.62.02.01c.288.13 2.934 1.41 2.934 4.603v4.34a.732.732 0 1 0 1.464 0v-4.34c0-4.33-3.707-5.904-3.865-5.97l-.014-.005-8.597-3.33a.957.957 0 0 0-.038-.016.212.212 0 0 1-.122-.19v-1.909a6.864 6.864 0 0 0 2.6-4.54c1.61-.217 2.94-1.507 2.94-3.09a2.92 2.92 0 0 0-.756-1.938V9.077C33.955 4.072 29.883 0 24.878 0S15.8 4.072 15.8 9.077v2.87c-.487.544-.755 1.201-.755 1.875 0 1.597 1.348 2.875 2.939 3.09a6.79 6.79 0 0 0 2.748 4.649v1.8a.212.212 0 0 1-.135.197zm-.496 24.977h-5.9V35.317a.733.733 0 1 0-1.465 0v13.218h-2.76a.405.405 0 0 1-.404-.404V32.872c0-2.124 1.357-3.93 2.953-4.612l3.194-1.239-.426.653a1.34 1.34 0 0 0 .221 1.724l2.229 2.053-1.226.938a1.34 1.34 0 0 0-.25 1.905l1.457 1.854v3.987a2.37 2.37 0 0 0-1.634 2.25 2.368 2.368 0 0 0 2.366 2.365c.64 0 1.22-.255 1.646-.668v4.453zm-1.646-7.052a.902.902 0 0 1 0 1.802.902.902 0 0 1 0-1.802zm1.646-.796a2.366 2.366 0 0 0-.913-.552v-2.123l.913 1.162v1.513zm0-3.884-2.607-3.318 1.242-.95a1.342 1.342 0 0 0 .099-2.069l-2.259-2.08 1.483-2.273 2.042-.791v11.48zm10.624 1.89h-.355c-.093 0-.184.008-.274.02l.63-.802v.782zm-.991-13.398 2.016.78 1.508 2.311L31 30.466a1.348 1.348 0 0 0-.439 1.054c.019.398.214.768.538 1.015l1.242.95-2.607 3.318V25.295zm-1.465 1.04a4.534 4.534 0 0 1-6.703 0v-1.664c.39-.314.631-.795.631-1.31v-.987c1.716.698 3.755.717 5.51-.05v1.037c0 .483.213.937.562 1.25v1.723zm4.977-12.513c0 .764-.662 1.394-1.416 1.59v-3.177c.804.211 1.416.858 1.416 1.587zm-15.32 1.59c-.756-.196-1.416-.828-1.416-1.59 0-.735.712-1.322 1.416-1.542v3.132zm.17-5.006a1.384 1.384 0 0 0-.139.36 3.833 3.833 0 0 0-.692.192v-1.88c0-4.198 3.415-7.613 7.613-7.613 4.197 0 7.612 3.415 7.612 7.612v1.827a3.765 3.765 0 0 0-.66-.164c0-.74.032-.572-2.306-3.084a1.299 1.299 0 0 0-1.664-.203c-2.346 1.532-5.324 2.458-8.274 2.314-.21-.01-1.037-.158-1.49.639zm1.295 5.627v-4.81c2.984.174 6.318-.652 9.154-2.469 1.037 1.114 1.634 1.735 1.82 1.963v5.316a5.401 5.401 0 0 1-2.515 4.561c-3.488 2.208-8.459-.138-8.459-4.56z" fill="#fff"/></symbol><symbol viewBox="0 0 60.969 60.969" style="enable-background:new 0 0 60.969 60.969" xml:space="preserve" id="equipment2" xmlns="http://www.w3.org/2000/svg"><path d="m5.193 12.367 1.668-.362a3.565 3.565 0 0 0 2.726-4.233l-.878-4.05A3.584 3.584 0 0 0 5.226.917c-.252 0-.505.027-.752.081l-1.668.361A3.529 3.529 0 0 0 .57 2.913a3.528 3.528 0 0 0-.488 2.679l.878 4.05a3.581 3.581 0 0 0 3.481 2.806c.252 0 .505-.027.752-.081zM2.915 9.219l-.878-4.051c-.088-.404-.012-.821.215-1.173s.574-.594.978-.681l1.668-.362a1.57 1.57 0 0 1 1.855 1.194l.878 4.049a1.564 1.564 0 0 1-1.194 1.856l-1.668.362a1.581 1.581 0 0 1-1.854-1.194zm57.012 33.997L44.191 27.512c-1.181-1.178-3.411-2.1-5.078-2.1l-3.429.001v-3.441c1.963 0 3.561-1.436 3.561-3.2s-1.598-3.2-3.561-3.2H25.649c-1.963 0-3.56 1.436-3.56 3.2s1.597 3.2 3.56 3.2v3.444h-.578c-1.144 0-2.854-.709-3.663-1.517l-9.923-9.922c-1.34-1.341-3.694-1.339-5.034 0l-1.207 1.207a3.535 3.535 0 0 0-1.039 2.517c0 .953.369 1.847 1.04 2.517l11.936 11.92c1.181 1.179 3.411 2.102 5.078 2.102h7.408v8.133h-4.12a1 1 0 0 0-1 1v4.12h-2.2a3.564 3.564 0 0 0-3.56 3.56v5.44a3.564 3.564 0 0 0 3.56 3.56h20.48a3.565 3.565 0 0 0 3.561-3.56v-5.44a3.565 3.565 0 0 0-3.561-3.56h-2.199v-4.12a1 1 0 0 0-1-1h-4.12V34.24h.817c1.143 0 2.854.709 3.663 1.517l13.701 13.701c.67.67 1.563 1.04 2.518 1.04.953 0 1.847-.369 2.517-1.04l1.207-1.207a3.532 3.532 0 0 0 1.039-2.517 3.535 3.535 0 0 0-1.043-2.518zM24.089 18.772c0-.65.714-1.2 1.56-1.2h10.035c.846 0 1.561.55 1.561 1.2s-.715 1.2-1.561 1.2H25.649c-.846 0-1.56-.55-1.56-1.2zm3.56 3.2h6.035v3.442l-6.035.002v-3.444zm16.738 29.08v5.44c0 .86-.7 1.56-1.561 1.56h-20.48c-.86 0-1.56-.7-1.56-1.56v-5.44c0-.86.699-1.56 1.56-1.56H42.826c.861 0 1.561.7 1.561 1.56zm-5.76-3.56H26.546v-3.12h12.081v3.12zm-5.12-5.12h-1.841v-8.133h1.841v8.133zm2.818-10.133H22.259c-1.143 0-2.855-.709-3.664-1.517L6.659 18.802a1.543 1.543 0 0 1-.454-1.102c0-.418.161-.81.453-1.103l1.207-1.207a1.553 1.553 0 0 1 1.104-.454c.418 0 .81.161 1.103.454l9.923 9.922c1.179 1.179 3.409 2.103 5.077 2.103h.578v2.249a1 1 0 1 0 2 0v-2.25l6.035-.002v2.251a1 1 0 1 0 2 0v-2.252l3.429-.001c1.144 0 2.856.708 3.666 1.516L55.711 41.83l-3.276 3.541-11.033-11.03c-1.18-1.178-3.41-2.102-5.077-2.102zm22.191 14.597-1.207 1.207c-.586.586-1.62.584-2.206 0l-1.254-1.254 3.277-3.542 1.389 1.386c.293.292.454.683.454 1.102 0 .417-.161.808-.453 1.101z" data-original="#231F20" class="factive-path" data-old_color="#231F20" fill="#FFF"/></symbol><symbol style="enable-background:new 0 0 512 512" xml:space="preserve" viewBox="0 0 512 512" id="guarantee" xmlns="http://www.w3.org/2000/svg"><path d="M341.333 281.6c-28.237 0-51.2 22.963-51.2 51.2 0 28.237 22.963 51.2 51.2 51.2 28.237 0 51.2-22.963 51.2-51.2 0-28.237-22.963-51.2-51.2-51.2zm0 85.333c-18.825 0-34.133-15.309-34.133-34.133 0-18.825 15.309-34.133 34.133-34.133 18.825 0 34.133 15.309 34.133 34.133.001 18.825-15.308 34.133-34.133 34.133z" data-original="#000000" class="gactive-path" data-old_color="#000000" fill="#FFF"/><path d="M358.4 366.933v35.26l-12.339-8.226a8.495 8.495 0 0 0-9.464 0l-12.331 8.226v-35.26H307.2v51.2a8.535 8.535 0 0 0 13.269 7.099l20.864-13.909 20.864 13.909a8.544 8.544 0 0 0 8.764.427 8.538 8.538 0 0 0 4.506-7.526v-51.2H358.4zM196.267 85.333H307.2V102.4H196.267zM119.467 136.533h273.067V153.6H119.467zM119.467 187.733H307.2V204.8H119.467zM341.333 187.733h51.2V204.8h-51.2zM119.467 238.933h273.067V256H119.467zM119.467 290.133h102.4V307.2h-102.4zM119.467 332.8h42.667v17.067h-42.667zM196.267 332.8h25.6v17.067h-25.6zM469.333 0c-23.526 0-42.667 19.14-42.667 42.667v17.067a8.53 8.53 0 0 0 8.533 8.533h68.267a8.53 8.53 0 0 0 8.533-8.533V42.667C512 19.14 492.86 0 469.333 0zm25.6 51.2h-51.2v-8.533c0-14.114 11.486-25.6 25.6-25.6s25.6 11.486 25.6 25.6V51.2z" data-original="#000000" class="gactive-path" data-old_color="#000000" fill="#FFF"/><path d="M469.333 0h-358.4C87.407 0 68.267 19.14 68.267 42.667v409.6h17.067v-409.6c0-14.114 11.486-25.6 25.6-25.6h324.284a42.443 42.443 0 0 0-8.55 25.6v426.667c0 14.114-11.486 25.6-25.6 25.6H76.8V512h324.267c23.526 0 42.667-19.14 42.667-42.667V42.667c0-14.114 11.486-25.6 25.6-25.6 4.719 0 8.533-3.823 8.533-8.533S474.052 0 469.333 0z" data-original="#000000" class="gactive-path" data-old_color="#000000" fill="#FFF"/><path d="M401.067 494.933c-14.114 0-25.6-11.486-25.6-25.6v-17.067a8.525 8.525 0 0 0-8.533-8.533H8.533A8.53 8.53 0 0 0 0 452.266v17.067C0 492.86 19.14 512 42.667 512h358.4a8.525 8.525 0 0 0 8.533-8.533 8.526 8.526 0 0 0-8.533-8.534zm-358.4 0c-14.114 0-25.6-11.486-25.6-25.6V460.8H358.4v8.533c0 9.6 3.183 18.466 8.55 25.6H42.667z" data-original="#000000" class="gactive-path" data-old_color="#000000" fill="#FFF"/></symbol><symbol viewBox="-96 0 511 511.997" id="implant" xmlns="http://www.w3.org/2000/svg"><path d="M295.805 28.563C280.867 10.145 260.55 0 238.598 0c-31.989 0-54.649 11.613-76.563 22.844a772.893 772.893 0 0 1-9.574 4.855 761.403 761.403 0 0 1-4.008-2.93C132.664 13.157 114.77 0 81.555 0c-21.953 0-42.27 10.145-57.207 28.563C8.746 47.8.5 74.03.5 104.421c0 38.582 16.055 70.824 31.586 102.012 3.715 7.464 7.562 15.183 11.125 22.867 5.113 11.039 16.316 18.168 28.539 18.168h.895V256c0 12.977 10.558 23.531 23.53 23.531h8.532v32.95l-1.574.222c-4.102.586-6.953 4.387-6.367 8.484a7.505 7.505 0 0 0 7.418 6.442c.171 0 .351-.024.523-.035v16.949l-1.574.227a7.498 7.498 0 0 0 1.05 14.921c.172 0 .352-.023.524-.035v16.95l-1.574.226c-4.102.586-6.953 4.387-6.367 8.484a7.505 7.505 0 0 0 7.418 6.442c.171 0 .351-.028.523-.04v16.954l-1.574.223a7.504 7.504 0 0 0-6.367 8.488 7.505 7.505 0 0 0 7.418 6.437c.171 0 .351-.023.523-.035v16.95l-1.574.226c-4.102.586-6.953 4.387-6.367 8.484a7.505 7.505 0 0 0 7.418 6.442c.171 0 .351-.028.523-.04v4.13c0 4.261 1.16 8.449 3.356 12.105l19.43 32.383c2.788 4.644 7.886 7.531 13.304 7.531h39.02c5.417 0 10.515-2.887 13.304-7.531l19.43-32.383a23.559 23.559 0 0 0 3.351-12.105v-19.973l1.578-.227a7.5 7.5 0 0 0 6.364-8.484c-.559-3.918-4.055-6.688-7.942-6.414v-16.941l1.578-.223a7.501 7.501 0 0 0 6.364-8.488c-.559-3.918-4.055-6.688-7.942-6.414v-16.938l1.578-.227a7.497 7.497 0 0 0 6.364-8.484c-.559-3.918-4.055-6.687-7.942-6.414v-16.941l1.578-.223a7.5 7.5 0 0 0 6.364-8.484c-.559-3.918-4.055-6.688-7.942-6.414v-16.942l1.578-.226a7.497 7.497 0 0 0 6.364-8.485c-.559-3.918-4.055-6.687-7.942-6.414v-17.09h8.532c12.976 0 23.535-10.554 23.535-23.531v-8.531h.879c12.242 0 23.453-7.153 28.562-18.215 3.457-7.492 7.176-15.016 10.766-22.293 15.476-31.344 31.48-63.754 31.48-102.54 0-30.39-8.246-56.62-23.851-75.859zM200.902 459.98a8.516 8.516 0 0 1-1.218 4.387l-19.426 32.383a.514.514 0 0 1-.442.25h-39.023a.523.523 0 0 1-.441-.25l-19.43-32.383a8.554 8.554 0 0 1-1.215-4.39v-6.23l81.195-11.599zm0-65.05-41.66 5.953c-4.101.586-6.953 4.387-6.367 8.484a7.505 7.505 0 0 0 7.418 6.442c.352 0 .71-.024 1.07-.079l39.54-5.644v16.91l-81.196 11.602v-16.914l9.594-1.371c4.101-.586 6.953-4.387 6.367-8.485-.586-4.101-4.39-6.953-8.488-6.363l-7.473 1.066v-16.914l81.195-11.597zm0-32.063-81.195 11.598v-16.91l81.195-11.602zm0-32.066-81.195 11.601v-16.914l81.195-11.597zm0-32.063-81.195 11.598V279.53h81.195zm73.825-98.418c-3.637 7.364-7.395 14.977-10.938 22.645-2.664 5.773-8.531 9.504-14.945 9.504H224.43a7.497 7.497 0 0 0-7.5 7.5 7.5 7.5 0 0 0 7.5 7.5h8.535V256c0 4.703-3.828 8.531-8.531 8.531H96.176c-4.707 0-8.531-3.828-8.531-8.531v-8.531H192.37a7.5 7.5 0 1 0 0-15H71.75c-6.402 0-12.266-3.719-14.93-9.477-3.652-7.875-7.543-15.687-11.308-23.246-15.434-30.996-30.016-60.273-30.016-95.324C15.496 45.715 48.726 15 81.555 15c28.293 0 43.402 11.11 58.011 21.852 10.176 7.484 20.696 15.218 34.746 18.222a7.5 7.5 0 0 0 8.903-5.765 7.5 7.5 0 0 0-5.766-8.903c-3.586-.765-6.894-1.953-10.07-3.445.496-.258 1.004-.516 1.5-.766C189.207 25.773 210.23 15 238.598 15c32.824 0 66.058 30.715 66.058 89.422 0 35.285-14.539 64.726-29.93 95.898zm0 0" data-original="#000000" class="hactive-path" data-old_color="#000000" fill="#FFF"/></symbol><symbol fill="none" viewBox="0 0 16 16" id="location" xmlns="http://www.w3.org/2000/svg"><path d="M8 0a5.801 5.801 0 0 0-5.795 5.795c0 3.965 5.186 9.786 5.407 10.032.207.23.57.23.776 0 .221-.246 5.407-6.067 5.407-10.032C13.795 2.599 11.195 0 8 0zm0 8.71a2.919 2.919 0 0 1-2.915-2.915A2.919 2.919 0 0 1 8 2.879a2.919 2.919 0 0 1 2.915 2.916A2.919 2.919 0 0 1 8 8.71z" fill="#fff"/></symbol><symbol fill="none" viewBox="0 0 16 16" id="mail" xmlns="http://www.w3.org/2000/svg"><path d="M14.5 2h-13A1.5 1.5 0 0 0 0 3.5v9A1.5 1.5 0 0 0 1.5 14h13a1.5 1.5 0 0 0 1.5-1.5v-9A1.5 1.5 0 0 0 14.5 2zm-1.766 1L8 6.738 3.266 3h9.468zM14 13H2V4.646l6 4.615 6-4.616V13z" fill="#fff"/></symbol><symbol fill="none" viewBox="0 0 32 32" id="menu" xmlns="http://www.w3.org/2000/svg"><path d="M26.733 14.667H5.267c-.7 0-1.267.567-1.267 1.266v.134c0 .7.567 1.266 1.267 1.266h21.466c.7 0 1.267-.567 1.267-1.266v-.134c0-.7-.567-1.266-1.267-1.266ZM26.733 21.333H5.267C4.567 21.333 4 21.9 4 22.6v.133c0 .7.567 1.267 1.267 1.267h21.466c.7 0 1.267-.567 1.267-1.267V22.6c0-.7-.567-1.267-1.267-1.267ZM26.733 8H5.267C4.567 8 4 8.567 4 9.267V9.4c0 .7.567 1.267 1.267 1.267h21.466c.7 0 1.267-.567 1.267-1.267v-.133C28 8.567 27.433 8 26.733 8Z" fill="#fff"/></symbol><symbol viewBox="0 0 331.493 331.493" style="enable-background:new 0 0 331.493 331.493" xml:space="preserve" id="money2" xmlns="http://www.w3.org/2000/svg"><path d="m298.761 57.093-101.2-54.8c-9.6-5.2-22.8-1.2-28 8.4l-59.2 110h-72c-9.2 0-16.4 7.2-16.4 16.4v178c0 9.2 7.2 16.4 16.4 16.4h230c9.2 0 16.4-7.2 16.4-16.4v-41.6h6.8c3.6 0 6.4-2.8 6.4-6.4v-47.6c0-3.6-2.8-6.4-6.4-6.4h-6.8v-46.8c0-7.6-5.6-14.4-12.8-16l35.2-65.2c5.2-10 1.6-22.4-8.4-28zm-72-24.4-63.2 117.2h-18l67.6-124.4 13.6 7.2zm-45.6-16c2-3.6 6.8-5.2 10.4-3.2l10 5.6-70.4 130.8h-22l72-133.2zm-146.8 120c0-1.2 1.6-3.2 3.6-3.2h65.2l-8.8 16h-56.4c-1.2 0-2.4 0-3.6.4v-13.2zm237.2 178.4c0 2-1.6 3.6-3.6 3.6h-230c-2 0-3.6-1.6-3.6-3.6v-148.8c0-2 1.6-3.6 3.6-3.6H267.561c2 0 3.6 1.6 3.6 3.6v46.8h-24.4c-10.8 0-19.2 8.8-19.2 19.2v22c0 10.8 8.8 19.2 19.2 19.2h24.8v41.6zm12.8-89.2h.4v34.8h-38c-3.6 0-6.4-2.8-6.4-6.4v-22c0-3.6 2.8-6.4 6.4-6.4h37.6zm11.2-147.2-38.4 71.2h-79.2l60-110.8 54.4 29.6c4 1.6 5.2 6.4 3.2 10z" data-original="#000000" class="lactive-path" data-old_color="#000000" fill="#FFF"/><path d="m271.161 72.693-3.2-1.6c-8-4.4-18.8-1.2-23.2 6.8l-4 7.6c-2 4-2.8 8.8-1.2 13.2 1.2 4.4 4.4 8 8.4 10l3.2 1.6c2.4 1.2 5.2 2 8 2 6.4 0 12-3.6 15.2-8.8l4-7.6c4-8.4.8-18.8-7.2-23.2zm-4.4 17.2-4 7.6c-1.2 2-4 2.8-6 1.6l-3.2-2c-.8-.4-1.6-1.6-2-2.4-.4-1.2-.4-2.4.4-3.2l4-7.6c.8-1.2 2.4-2.4 4-2.4.8 0 1.2 0 2 .4l3.2 1.6c1.6 1.6 2.4 4 1.6 6.4z" data-original="#000000" class="lactive-path" data-old_color="#000000" fill="#FFF"/></symbol><symbol viewBox="0 0 284.539 284.539" id="orthopantomogram" xmlns="http://www.w3.org/2000/svg"><g fill="#FFF"><path d="M279.796 184.95H4.742A4.744 4.744 0 0 1 0 180.208V23.716C0 13.255 8.512 4.742 18.974 4.742h246.591c10.462 0 18.974 8.512 18.974 18.974v156.492a4.744 4.744 0 0 1-4.743 4.742zM9.485 175.466h265.57V23.716c0-5.236-4.259-9.489-9.489-9.489H18.974c-5.231 0-9.489 4.254-9.489 9.489z" data-original="#000000" class="mactive-path" data-old_color="#000000"/><path d="M265.565 222.889H18.974C8.512 222.889 0 214.376 0 203.915v-23.707a4.744 4.744 0 0 1 4.742-4.742h275.054a4.744 4.744 0 0 1 4.742 4.742v23.707c.001 10.461-8.512 18.974-18.973 18.974zM9.485 184.95v18.965c0 5.236 4.259 9.489 9.489 9.489h246.591c5.231 0 9.489-4.254 9.489-9.489V184.95z" data-original="#000000" class="mactive-path" data-old_color="#000000"/><path d="M156.496 203.919h-28.454c-2.618 0-4.742-2.125-4.742-4.742s2.125-4.742 4.742-4.742h28.454c2.618 0 4.742 2.125 4.742 4.742s-2.124 4.742-4.742 4.742zM260.827 184.95H23.712a4.744 4.744 0 0 1-4.742-4.742V28.454a4.744 4.744 0 0 1 4.742-4.742h237.116a4.744 4.744 0 0 1 4.742 4.742v151.754a4.744 4.744 0 0 1-4.743 4.742zm-232.373-9.484h227.631V33.196H28.454zM203.919 279.796h-123.3c-7.844 0-14.227-6.383-14.227-14.227s6.383-14.227 14.227-14.227h123.3c7.844 0 14.227 6.383 14.227 14.227s-6.383 14.227-14.227 14.227zm-123.3-18.969c-2.618 0-4.742 2.129-4.742 4.742s2.125 4.742 4.742 4.742h123.3c2.618 0 4.742-2.129 4.742-4.742s-2.125-4.742-4.742-4.742z" data-original="#000000" class="mactive-path" data-old_color="#000000"/><path d="M194.435 260.827H90.104a4.744 4.744 0 0 1-4.742-4.742 4.744 4.744 0 0 1 4.742-4.742c15.735 0 23.712-11.168 23.712-33.196a4.744 4.744 0 0 1 4.742-4.742h47.423a4.744 4.744 0 0 1 4.742 4.742c0 22.028 7.977 33.196 23.712 33.196a4.743 4.743 0 0 1 0 9.484zm-81.231-9.484h58.136c-5.843-6.469-9.281-16.1-9.968-28.454h-38.199c-.693 12.353-4.131 21.985-9.969 28.454zM165.568 156.496a6.783 6.783 0 0 1-6.507-4.913c-4.671-16.503-12.045-29.431-16.793-29.431-4.747 0-12.121 12.928-16.793 29.431a6.783 6.783 0 0 1-4.88 4.714c-2.352.569-4.837-.142-6.497-1.878-8.47-8.859-7.991-25.533-7.905-27.401-.005-4.567.991-10.471 2.964-17.324.74-2.58.247-5.354-1.361-7.611a43.652 43.652 0 0 1-1.01-1.48c-4.709-7.189-7.199-15.773-7.199-24.826v-4.154c0-15.394 16.048-19.458 24.537-19.458 8.328 0 14.483 3.988 18.144 7.275 3.661-3.286 9.817-7.275 18.144-7.275 8.489 0 24.537 4.064 24.537 19.462v4.154c0 9.053-2.49 17.637-7.199 24.826a43.42 43.42 0 0 1-1.005 1.475c-1.608 2.262-2.101 5.036-1.361 7.611 1.968 6.853 2.964 12.752 2.964 17.532.076 1.665.56 18.334-7.91 27.192a6.73 6.73 0 0 1-4.87 2.079zM124.125 61.65c-.602.005-15.052.199-15.052 9.978v4.154c0 7.204 1.954 13.99 5.648 19.628.261.398.526.792.806 1.186 3.282 4.619 4.282 10.352 2.741 15.716-1.698 5.923-2.599 11.078-2.599 14.915-.128 3.158.199 10.452 2.452 16.005 4.059-12.216 12.15-30.559 24.148-30.559 11.989 0 20.079 18.329 24.138 30.54 2.262-5.61 2.585-12.984 2.461-15.782-.005-4.045-.901-9.2-2.604-15.123-1.541-5.368-.541-11.097 2.746-15.721.275-.389.541-.778.797-1.171 3.704-5.648 5.658-12.434 5.658-19.638v-4.154c0-9.736-14.336-9.973-15.057-9.978-8.816.005-14.194 7.374-14.246 7.45-1.774 2.547-6.013 2.547-7.787 0-.198-.276-5.424-7.446-14.25-7.446z" data-original="#000000" class="mactive-path" data-old_color="#000000"/><path d="M128.042 80.619a4.744 4.744 0 0 1-4.742-4.742 4.744 4.744 0 0 1 4.742-4.742c2.826 0 7.934-4.477 10.528-7.711a4.746 4.746 0 0 1 6.668-.726 4.746 4.746 0 0 1 .726 6.668c-1.508 1.878-9.471 11.253-17.922 11.253zM42.681 71.135a4.744 4.744 0 0 1-4.742-4.742v-18.97a4.744 4.744 0 0 1 4.742-4.742H61.65a4.744 4.744 0 0 1 4.742 4.742 4.744 4.744 0 0 1-4.742 4.742H47.423v14.227a4.744 4.744 0 0 1-4.742 4.743zM241.858 165.981h-18.969a4.744 4.744 0 0 1-4.742-4.742 4.744 4.744 0 0 1 4.742-4.742h14.227V142.27c0-2.618 2.125-4.742 4.742-4.742s4.742 2.125 4.742 4.742v18.969a4.744 4.744 0 0 1-4.742 4.742z" data-original="#000000" class="mactive-path" data-old_color="#000000"/></g></symbol><symbol fill="none" viewBox="0 0 20 10" id="right-arrow" xmlns="http://www.w3.org/2000/svg"><path d="M19.77 4.29 15.688.228a.781.781 0 0 0-1.102 1.107l2.74 2.728H.781a.781.781 0 1 0 0 1.562h16.545l-2.74 2.728a.781.781 0 1 0 1.102 1.107l4.082-4.062v-.001a.782.782 0 0 0 0-1.106z" fill="#fff"/></symbol></svg>