<svg xmlns="http://www.w3.org/2000/svg" xmlns:xlink="http://www.w3.org/1999/xlink" xmlns:inkscape="http://www.inkscape.org/namespaces/inkscape" version="1.1" width="56" height="48" viewBox="60 180 470 490" >
<path transform="matrix(1,0,0,-1,348.46,247.143)" d="M0 0C-1.279 8.297-3.316 15.416-6.123 21.442-7.504 24.416-9.085 27.145-10.863 29.626-12.126 31.417-13.472 33.092-14.95 34.569-22.922 42.579-33.583 46.483-47.546 46.483-58.954 46.483-72.575 43.839-89.184 38.388-95.976 36.177-101.98 33.935-107.8 31.777-120.641 27.005-131.488 23.032-144.341 21.442-149.529 20.791-155.014 20.507-161.136 20.762L-162.831 20.824-162.626 19.148C-162.12 14.81-149.165 9.71-145.094 9.203L-144.701 9.147-138.785 11.826C-131.763 15.022-124.502 18.288-117.156 21.442-95.183 30.84-72.464 38.928-53.072 38.928-36.958 38.928-24.634 33.114-15.958 21.442-8.14 10.941-3.243-4.284-1.221-24.503L0-36.628 1.539-52.065 1.661-24.355C1.7-15.276 1.108-7.233 0 0" fill="#3d3f96"/>
<path transform="matrix(1,0,0,-1,246.386,478.654)" d="M0 0C17.095 52.074-52.4 67.411-59.848 21.07-66.421-19.836-65.242-62.259-62.497-103.681L-67.516-101.64-75.844-95.731C-160.842-19.124-204.29 112.14-184.677 222.625-182.951 232.359-180.617 243.18-176.409 252.953-173.647 259.353-170.093 265.318-165.294 270.132-133.088 302.531-112.558 277.45-88.374 252.953-65.43 229.721-39.203 207.025 3.392 234.292-35.433 213.984-56.687 231.684-77.57 252.953-90.966 266.588-104.211 281.699-121.849 289.178-138.95 296.47-159.254 290.894-172.637 277.549-179.615 270.572-184.633 262.135-188.215 252.953-190.441 247.243-192.069 241.221-193.331 235.111-196.468 219.895-197.031 203.905-196.947 189.717-196.302 87.669-151.915-29.801-82.551-103.758-77.804-108.782-67.502-115.978-59.612-114.94-48.718-113.496-56.37-99.837-57.865-93.015-63.567-67.101-69.337 43.051-27.558 42.91 4.261 42.109-8.132-1.524-14.94-37.236-22.031-74.494-28.467-87.265-20.264-107.507-18.858-110.956-11.919-113.564-8.195-114.092 32.951-119.863 99.14-22.265 102.074 64.387 88.267-78.504-68.726-209.591 0 0" fill="#3d3f96"/>
<path transform="matrix(1,0,0,-1,90.47,308.287)" d="M0 0H30.305L27.431-10.142H26.44C26.486-9.603 26.495-9.137 26.495-8.728 26.495-6.8 25.932-5.302 24.809-4.236 23.668-3.178 21.769-2.586 19.07-2.417L10.7-30.792C10.227-32.366 9.996-33.507 9.996-34.284 9.996-34.996 10.293-35.565 10.862-35.973 11.437-36.377 12.595-36.611 14.363-36.652L14.101-37.677H-4.578L-4.243-36.652C-2.339-36.652-.959-36.3-.095-35.57 .785-34.877 1.582-33.266 2.303-30.792L10.7-2.417C7.806-2.521 5.389-3.147 3.444-4.304 1.499-5.479-.273-7.429-1.881-10.142H-2.98L0 0ZM28.693-18.973 29.828-11.94H30.991C31.395-12.544 31.876-12.846 32.413-12.846 32.77-12.846 33.277-12.77 33.939-12.65 36.328-12.171 38.031-11.94 39.028-11.94 41.176-11.94 42.912-12.395 44.258-13.35 45.579-14.295 46.241-15.551 46.241-17.143 46.241-18.597 45.576-19.93 44.224-21.16 42.895-22.398 41.011-23.27 38.605-23.817 42.204-24.593 44.009-26.543 44.009-29.706 44.009-32.128 42.912-34.175 40.749-35.88 38.581-37.612 35.967-38.447 32.919-38.447 30.743-38.447 28.958-37.888 27.539-36.702 26.117-35.525 25.099-34.119 24.504-32.42L25.367-32.012C26.821-34.611 28.621-35.926 30.777-35.926 32.605-35.926 34.104-35.094 35.251-33.427 36.395-31.767 36.968-30.062 36.968-28.343 36.968-26.918 36.641-25.903 35.958-25.309 35.279-24.724 34.211-24.415 32.77-24.41L33.163-23.069C35.088-23.069 36.654-22.436 37.849-21.203 39.042-19.961 39.644-18.506 39.644-16.821 39.644-15.708 39.317-14.9 38.691-14.406 38.062-13.933 37.351-13.679 36.572-13.679 35.59-13.679 34.447-14.05 33.193-14.79 31.933-15.531 30.828-16.936 29.885-18.973H28.693ZM63.842-38.571C60.787-38.571 58.333-37.922 56.473-36.702 54.6-35.469 53.201-33.78 52.272-31.613 51.326-29.481 50.862-27.389 50.862-25.344 50.862-21.249 52.025-17.088 54.387-12.92 56.738-8.749 59.913-5.391 63.909-2.892 67.89-.369 71.835 .88 75.722 .88 78.001 .88 80.169 .311 82.211-.826 84.25-1.988 85.842-3.588 86.985-5.649 88.125-7.702 88.696-9.774 88.696-11.857 88.696-16.553 87.204-21.261 84.228-25.966 81.237-30.671 77.894-34.096 74.164-36.204 71.358-37.779 67.901-38.571 63.842-38.571ZM74.81-1.393C73.343-1.393 72.086-1.667 71.07-2.187 70.046-2.714 68.985-3.607 67.853-4.848 66.748-6.089 65.622-7.865 64.478-10.151 63.315-12.482 62.246-15.599 61.234-19.569 60.225-23.542 59.727-26.837 59.727-29.481 59.727-31.742 60.223-33.435 61.192-34.603 62.183-35.773 63.436-36.341 64.971-36.341 66.996-36.341 68.739-35.665 70.169-34.31 72.986-31.628 75.315-27.699 77.098-22.492 78.877-17.299 79.775-12.675 79.775-8.621 79.775-6.089 79.296-4.236 78.346-3.117 77.387-1.971 76.213-1.393 74.81-1.393ZM97.721 0H112.604C115.935 0 118.297-.184 119.713-.54 121.592-.971 123.04-1.846 124.084-3.147 125.099-4.413 125.606-5.876 125.606-7.508 125.606-8.847 125.203-10.206 124.387-11.591 123.574-12.987 122.355-14.124 120.731-15.02 119.118-15.907 116.626-16.765 113.283-17.509 116.758-18.491 119.169-19.742 120.522-21.286 121.883-22.83 122.559-24.615 122.559-26.646 122.559-28.555 121.899-30.438 120.559-32.301 119.219-34.17 117.458-35.525 115.244-36.377 113.046-37.251 109.01-37.677 103.141-37.677H87.47L87.829-36.652C89.35-36.652 90.443-36.504 91.107-36.233 91.753-35.955 92.279-35.525 92.686-34.942 93.076-34.363 93.548-33.145 94.083-31.284L100.806-8.135C101.486-5.761 101.828-4.19 101.828-3.382 101.828-2.745 101.564-2.219 101.022-1.788 100.464-1.352 99.273-1.111 97.44-1.042L97.721 0ZM106.255-16.655C108.769-16.601 110.753-16.209 112.213-15.443 113.66-14.701 114.842-13.45 115.703-11.709 116.58-9.99 117.028-8.341 117.028-6.813 117.028-5.371 116.571-4.19 115.654-3.291 114.755-2.37 113.549-1.938 112.026-1.985L110.497-2.033 106.255-16.655ZM105.583-18.711 100.777-35.487C101.71-35.52 102.404-35.525 102.858-35.525 106.993-35.525 109.856-34.392 111.472-32.095 113.076-29.78 113.889-27.314 113.889-24.679 113.889-23.425 113.575-22.304 112.96-21.331 112.335-20.363 111.54-19.677 110.55-19.3 109.575-18.923 107.914-18.711 105.583-18.711ZM157.448-12.38 150.311-25.185 151.945-37.953H150.311L143.387-25.185 155.673-12.38H157.448ZM169.137-12.38 162.026-25.185 163.801-37.953H162.026L155.19-25.185 167.448-12.38H169.137ZM210.522 .847 207.756-11.121H206.664C206.531-7.865 205.734-5.436 204.274-3.826 202.786-2.231 200.864-1.44 198.499-1.44 195.942-1.44 193.399-2.521 190.849-4.703 188.315-6.892 186.179-10.225 184.413-14.734 183-18.383 182.278-21.989 182.278-25.55 182.278-28.728 183.052-31.154 184.613-32.821 186.182-34.506 188.32-35.332 191.06-35.332 193.258-35.332 195.268-34.865 197.077-33.911 198.907-32.945 200.733-31.371 202.587-29.203H203.913C201.621-32.66 199.297-35.08 196.942-36.463 194.615-37.847 191.754-38.542 188.357-38.542 183.831-38.542 180.179-37.145 177.417-34.428 174.625-31.654 173.248-28.058 173.248-23.651 173.248-19.5 174.354-15.531 176.555-11.758 178.753-8.019 181.925-4.942 186.067-2.636 190.2-.305 194.327 .847 198.411 .847 199.968 .847 201.912 .514 204.216-.151 205.409-.49 206.223-.662 206.705-.662 207.623-.662 208.56-.151 209.498 .847H210.522ZM220.246 .847C221.404 .847 222.361 .445 223.159-.323 223.936-1.132 224.338-2.1 224.338-3.228 224.338-4.361 223.936-5.336 223.132-6.125 222.338-6.937 221.387-7.323 220.246-7.323 219.141-7.323 218.186-6.937 217.378-6.125 216.593-5.336 216.194-4.361 216.194-3.228 216.194-2.1 216.575-1.132 217.373-.323 218.156 .445 219.125 .847 220.246 .847ZM221.96-11.94 216.275-31.675C215.963-32.797 215.808-33.548 215.808-33.911 215.808-34.109 215.902-34.284 216.048-34.487 216.228-34.634 216.399-34.722 216.575-34.722 216.88-34.722 217.211-34.597 217.528-34.31 218.371-33.629 219.358-32.385 220.527-30.585L221.462-31.154C218.682-36.01 215.701-38.447 212.555-38.447 211.346-38.447 210.399-38.101 209.687-37.447 208.964-36.773 208.596-35.903 208.596-34.877 208.596-34.182 208.774-33.316 209.089-32.258L212.945-18.973C213.319-17.714 213.507-16.738 213.507-16.092 213.507-15.684 213.328-15.335 212.971-15.012 212.619-14.701 212.141-14.534 211.54-14.534 211.247-14.534 210.921-14.566 210.522-14.566L210.878-13.45 220.317-11.94H221.96ZM226.717-13.483 235.927-11.94H237.58L236.334-16.452C238.274-14.675 239.866-13.483 241.119-12.853 242.349-12.239 243.575-11.94 244.798-11.94 246.544-11.94 247.897-12.604 248.838-13.941 249.769-15.282 250.254-16.922 250.254-18.876 250.254-24.197 248.388-28.901 244.727-33.006 241.462-36.628 237.902-38.447 234.07-38.447 233.357-38.447 232.787-38.393 232.291-38.262 231.816-38.137 231.15-37.847 230.27-37.39L228.828-42.395C228.323-44.201 228.057-45.594 228.057-46.534 228.057-47.13 228.246-47.586 228.666-47.951 229.061-48.279 230.02-48.548 231.523-48.814L231.275-49.833H216.337L216.616-48.814C217.801-48.777 218.786-48.404 219.571-47.678 220.354-46.96 221.098-45.389 221.788-43.008L228.562-19.663C229.054-17.91 229.305-16.677 229.305-15.951 229.305-15.639 229.235-15.374 229.08-15.165 228.934-14.959 228.704-14.79 228.41-14.702 228.12-14.604 227.449-14.566 226.406-14.566L226.717-13.483ZM231.072-34.815C231.614-35.723 232.125-36.334 232.557-36.628 232.982-36.948 233.522-37.095 234.124-37.095 234.705-37.095 235.275-36.939 235.85-36.598 236.416-36.27 237.114-35.625 237.947-34.651 238.78-33.663 239.578-32.406 240.341-30.87 241.119-29.337 241.727-27.594 242.179-25.637 242.657-23.67 242.888-21.8 242.888-20.043 242.888-18.605 242.645-17.585 242.13-16.922 241.601-16.28 240.991-15.951 240.271-15.951 239.635-15.951 239.014-16.127 238.437-16.452 237.603-16.922 236.629-17.838 235.501-19.148L231.072-34.815ZM264.493 .847C265.636 .847 266.627 .445 267.4-.323 268.193-1.132 268.582-2.1 268.582-3.228 268.582-4.361 268.187-5.336 267.383-6.125 266.579-6.937 265.623-7.323 264.493-7.323 263.376-7.323 262.431-6.937 261.648-6.125 260.844-5.336 260.445-4.361 260.445-3.228 260.445-2.1 260.823-1.132 261.624-.323 262.407 .445 263.376 .847 264.493 .847ZM266.212-11.94 260.529-31.675C260.215-32.797 260.046-33.548 260.046-33.911 260.046-34.109 260.141-34.284 260.298-34.487 260.477-34.634 260.641-34.722 260.823-34.722 261.149-34.722 261.458-34.597 261.783-34.31 262.603-33.629 263.611-32.385 264.788-30.585L265.72-31.154C262.926-36.01 259.957-38.447 256.807-38.447 255.6-38.447 254.653-38.101 253.923-37.447 253.22-36.773 252.858-35.903 252.858-34.877 252.858-34.182 253.018-33.316 253.338-32.258L257.187-18.973C257.556-17.714 257.758-16.738 257.758-16.092 257.758-15.684 257.572-15.335 257.219-15.012 256.869-14.701 256.386-14.534 255.77-14.534 255.487-14.534 255.163-14.566 254.772-14.566L255.132-13.45 264.562-11.94H266.212ZM268.956-14.441 277.521-11.94C278.214-12.77 278.697-13.571 278.963-14.345 279.47-15.669 279.83-17.461 280.013-19.793 280.395-24.344 280.677-29.203 280.833-34.377 282.813-31.767 285.097-28.319 287.63-24.014 288.409-22.713 288.807-21.492 288.807-20.353 288.807-19.621 288.356-18.932 287.467-18.289 286.555-17.652 285.993-17.128 285.775-16.765 285.551-16.403 285.448-15.946 285.448-15.352 285.448-14.446 285.775-13.641 286.461-12.95 287.141-12.264 287.942-11.94 288.908-11.94 289.931-11.94 290.836-12.312 291.565-13.09 292.329-13.864 292.69-14.785 292.69-15.834 292.69-17.088 292.346-18.534 291.65-20.159 290.957-21.795 289.34-24.615 286.761-28.586 283.499-33.689 280.279-38.087 277.139-41.808 275.121-44.189 273.479-45.894 272.248-46.943 271.001-47.988 269.714-48.814 268.394-49.423 267.6-49.782 266.799-49.958 266.036-49.958 264.969-49.958 264.069-49.586 263.305-48.848 262.567-48.112 262.207-47.22 262.207-46.203 262.207-45.179 262.526-44.325 263.198-43.608 263.88-42.928 264.669-42.566 265.569-42.566 266.702-42.566 267.751-43.153 268.7-44.338 269.318-45.143 269.845-45.539 270.242-45.539 270.663-45.539 271.094-45.402 271.49-45.161 272.058-44.876 272.839-44.189 273.822-43.117 273.938-40.796 274-39.055 274-37.888 274-36.27 273.927-34.034 273.77-31.154L273.304-20.567C273.122-18.619 272.721-17.216 272.058-16.372 271.543-15.75 270.859-15.428 270.033-15.428 269.709-15.428 269.351-15.443 268.956-15.513V-14.441ZM314.142-30.984 314.975-31.722C313.175-33.885 311.405-35.455 309.659-36.463 307.348-37.792 304.953-38.447 302.46-38.447 300.799-38.447 299.332-38.087 298.042-37.383 296.751-36.67 295.805-35.669 295.189-34.392 294.567-33.1 294.277-31.767 294.277-30.427 294.277-27.389 295.104-24.41 296.751-21.466 298.409-18.534 300.58-16.209 303.263-14.501 305.972-12.788 308.643-11.94 311.242-11.94 313.351-11.94 314.914-12.395 315.969-13.315 317.02-14.243 317.55-15.384 317.55-16.765 317.55-17.993 317.158-19.054 316.356-19.93 315.56-20.811 314.686-21.249 313.693-21.249 312.843-21.249 312.15-20.949 311.578-20.401 311.007-19.847 310.734-19.182 310.734-18.416 310.734-17.416 311.224-16.553 312.217-15.82 312.902-15.302 313.247-14.845 313.247-14.457 313.247-14.124 313.121-13.84 312.817-13.651 312.466-13.365 311.979-13.194 311.394-13.194 309.834-13.194 308.385-13.824 307-15.083 305.197-16.765 303.794-18.876 302.836-21.43 301.861-23.995 301.384-26.405 301.384-28.708 301.384-30.522 301.869-31.971 302.848-33.056 303.844-34.126 305.001-34.683 306.372-34.683 307.556-34.683 308.839-34.377 310.207-33.765 311.578-33.146 312.888-32.227 314.142-30.984ZM375.903 0 375.628-1.042C373.341-1.111 371.772-1.753 370.91-2.933 370.062-4.132 369.239-6.118 368.431-8.873L362.305-30.318C361.778-32.128 361.528-33.387 361.528-34.126 361.528-35.652 362.932-36.478 365.746-36.652L365.443-37.677H347.303L347.597-36.652C348.939-36.652 349.981-36.437 350.764-36.031 351.529-35.599 352.137-34.942 352.596-34.013 353.064-33.101 353.676-31.195 354.505-28.289L362.023-2.1H351.6L347.781-15.182C346.211-20.541 344.792-24.937 343.501-28.356 342.2-31.767 340.696-34.25 338.981-35.803 337.275-37.35 335.428-38.125 333.446-38.125 332.187-38.125 331.107-37.748 330.221-36.994 329.323-36.224 328.888-35.291 328.888-34.175 328.888-33.192 329.248-32.333 329.924-31.611 330.652-30.878 331.542-30.515 332.612-30.515 333.776-30.515 334.77-31.124 335.615-32.333 336.16-33.174 336.684-33.599 337.115-33.599 338.316-33.599 339.396-32.498 340.365-30.318 341.34-28.133 342.973-23.449 345.232-16.306 347.495-9.147 348.642-4.882 348.642-3.538 348.642-1.876 347.303-1.042 344.639-1.042H343.61L343.927 0H375.903ZM380.392 0H410.68L407.822-10.142H406.833C406.875-9.603 406.886-9.137 406.886-8.728 406.886-6.8 406.316-5.302 405.178-4.236 404.072-3.178 402.153-2.586 399.472-2.417L391.08-30.792C390.629-32.366 390.387-33.507 390.387-34.284 390.387-34.996 390.675-35.565 391.235-35.973 391.819-36.377 392.981-36.611 394.748-36.652L394.492-37.677H375.807L376.139-36.652C378.034-36.652 379.428-36.3 380.293-35.57 381.178-34.877 381.969-33.266 382.693-30.792L391.08-2.417C388.198-2.521 385.782-3.147 383.826-4.304 381.876-5.479 380.112-7.429 378.5-10.142H377.411L380.392 0ZM419.206 0H450.931L450.658-1.042C448.484-1.042 446.984-1.516 446.125-2.474 445.271-3.418 444.322-5.789 443.23-9.567L437.41-29.97C436.876-31.857 436.603-33.229 436.603-34.147 436.603-35.116 436.883-35.73 437.419-36.059 437.967-36.367 439.068-36.548 440.69-36.611L437.255-48.548H436.212C436.487-47.399 436.603-46.224 436.603-45.085 436.603-42.759 436.071-40.938 434.98-39.629 433.897-38.342 431.989-37.677 429.269-37.677H418.437C415.694-37.677 413.471-37.922 411.757-38.482 410.062-39.026 408.416-40.084 406.822-41.679 405.209-43.264 403.583-45.567 401.931-48.548H400.914L404.306-36.611C405.643-36.611 406.875-36.27 408.003-35.599 409.151-34.929 410.609-33.433 412.38-31.124 414.164-28.791 415.958-25.733 417.778-21.903 419.58-18.088 421.029-14.446 422.082-10.987 423.127-7.536 423.664-5.149 423.664-3.851 423.664-2.695 423.331-1.938 422.673-1.584 422.006-1.225 420.766-1.042 418.906-1.042L419.206 0ZM426.96-2.1 424.791-9.617C424.387-11.052 423.59-13.322 422.388-16.485 421.206-19.629 419.705-22.85 417.887-26.104 416.061-29.394 414.045-32.554 411.833-35.599H422.738C425.064-35.599 426.49-35.323 427.007-34.78 427.52-34.25 428.176-32.534 429.019-29.616L436.905-2.1H426.96ZM458.391-37.953 465.523-25.148 463.895-12.38H465.523L472.441-25.148 460.129-37.953H458.391ZM446.692-37.953 453.799-25.148 452.032-12.38H453.799L460.627-25.148 448.383-37.953H446.692" fill="#3d3f96"/>
<path transform="matrix(1,0,0,-1,47.206,498.849)" d="M0 0 25.349-5.245C27.336-5.664 28.564-5.793 29.023-5.628 30.103-5.24 30.221-3.726 29.361-1.081L30.479-1.019 34.173-12.334 33.044-12.382C32.499-10.933 31.753-9.869 30.774-9.223 29.799-8.57 27.882-7.931 25.011-7.332L-.075-2.11C-4.27-1.252-7.529-.317-9.883 .637-12.213 1.618-13.73 3.192-14.446 5.37-15.083 7.328-15.068 9.083-14.427 10.603-13.759 12.147-12.877 13.117-11.758 13.525-11.004 13.801-10.257 13.772-9.537 13.49-8.809 13.206-8.321 12.636-8.052 11.85-7.558 10.323-8.222 9.013-10.024 7.938-11.653 6.978-12.275 5.915-11.892 4.736-11.399 3.226-9.577 2.163-6.383 1.501L16.012 17.043C18.666 18.875 20.238 20.28 20.701 21.269 21.176 22.28 21.237 23.485 20.897 24.9L22.026 24.972 26.6 10.893 25.475 10.813C24.49 13.865 23.141 15.055 21.469 14.45 21.038 14.293 20.328 13.868 19.338 13.206L0 0ZM11.07-37.553C8.035-36.851 5.563-35.838 3.686-34.48 1.8-33.136 .374-31.43-.588-29.339-1.742-26.832-1.956-24.503-1.201-22.393-.441-20.287 1.11-18.591 3.475-17.376 6.151-15.98 9.131-15.397 12.422-15.581 15.702-15.741 18.755-16.686 21.541-18.409 24.338-20.119 26.303-22.211 27.446-24.661 28.319-26.589 28.599-28.233 28.236-29.604 27.882-30.96 27.12-31.952 25.973-32.546 24.885-33.106 23.814-33.253 22.729-32.968 21.902-32.79 21.323-32.325 20.987-31.609 20.737-31.064 20.701-30.506 20.888-29.972 21.07-29.423 21.419-29.013 21.939-28.744 22.263-28.563 22.624-28.473 22.962-28.473 23.288-28.457 23.765-28.555 24.348-28.772 24.936-28.985 25.331-29.094 25.551-29.094 25.764-29.094 25.968-29.044 26.154-28.933 26.519-28.744 26.764-28.423 26.845-27.966 26.957-27.27 26.804-26.451 26.364-25.515 25.58-23.789 24.169-22.382 22.182-21.316 20.197-20.234 17.818-19.67 15.035-19.609 11.661-19.555 8.634-20.228 5.947-21.615 4.16-22.526 2.988-23.772 2.419-25.32 1.842-26.889 1.973-28.555 2.791-30.322 3.414-31.679 4.373-32.857 5.668-33.85 6.951-34.832 8.868-35.692 11.394-36.441L11.07-37.553ZM47.544-36.99C47.94-37.698 48.039-38.44 47.834-39.24 47.632-40.034 47.184-40.639 46.477-41.097 45.789-41.543 45.071-41.655 44.284-41.477 43.517-41.294 42.937-40.843 42.545-40.171 42.145-39.477 42.048-38.719 42.267-37.905 42.482-37.101 42.921-36.484 43.606-36.072 44.305-35.596 45.033-35.46 45.797-35.664 46.552-35.838 47.137-36.281 47.544-36.99ZM37.789-43.619 17.401-49.759C16.024-50.181 15.216-50.453 14.986-50.605 14.709-50.768 14.538-50.986 14.467-51.253 14.392-51.526 14.416-51.766 14.538-51.983 14.677-52.252 14.986-52.465 15.454-52.647 16.755-53.132 18.371-53.416 20.312-53.51L20.24-54.772C17.864-54.72 15.633-54.299 13.563-53.503 12.018-52.915 10.965-52.107 10.371-51.065 9.971-50.371 9.861-49.678 10.018-48.978 10.168-48.29 10.566-47.738 11.182-47.342 11.8-46.966 12.946-46.509 14.628-46.024L27.714-42.191C29.859-41.554 31.15-41.097 31.628-40.813 31.989-40.55 32.22-40.248 32.288-39.828 32.398-39.426 32.288-38.993 32.041-38.544 31.826-38.182 31.304-37.449 30.455-36.411L31.436-35.792 37.789-43.619ZM54.782-87.732C56.362-89.632 57.154-91.505 57.154-93.279 57.144-95.066 56.521-96.559 55.318-97.828 53.692-99.476 51.56-100.115 48.936-99.75 46.322-99.38 43.959-98.064 41.886-95.78 37.782-91.298 37.991-86.732 42.521-82.099 45.834-78.717 49.876-76.929 54.668-76.706 59.47-76.479 63.36-78.021 66.353-81.298 67.842-82.929 68.639-84.425 68.766-85.785 68.873-87.173 68.481-88.286 67.592-89.212 65.396-91.454 61.116-90.973 54.782-87.732ZM49.628-83.162C53.539-85.706 56.748-87.173 59.27-87.549 61.798-87.928 63.717-87.434 65.04-86.074 65.529-85.573 65.801-84.962 65.916-84.171 66.019-83.377 65.752-82.608 65.085-81.886 62.363-78.914 57.212-79.352 49.628-83.162ZM47.985-84.03C46.361-84.896 44.813-86.069 43.398-87.532 42.048-88.902 41.383-90.208 41.369-91.479 41.369-92.763 41.81-93.889 42.694-94.841 43.902-96.16 45.427-96.718 47.279-96.484 49.116-96.233 50.772-95.342 52.231-93.869 53.185-92.896 53.709-91.768 53.771-90.488 53.862-89.212 53.441-88.092 52.557-87.117 51.466-85.93 49.941-84.896 47.985-84.03ZM90.952-104.062 76.603-115.664C74.465-117.394 73.188-118.545 72.79-119.12 72.582-119.41 72.471-119.674 72.457-119.883 72.471-120.098 72.539-120.279 72.698-120.417 72.958-120.617 73.32-120.705 73.806-120.685 74.292-120.685 75.781-120.272 78.286-119.49L78.543-120.588C75.911-121.696 73.627-122.249 71.705-122.238 70.442-122.21 69.444-121.902 68.674-121.296 68.1-120.838 67.77-120.299 67.712-119.687 67.64-119.051 67.803-118.452 68.227-117.88 68.619-117.312 69.241-116.674 70.084-115.888 71.196-114.888 73.756-112.755 77.773-109.576 71.989-112.148 67.616-113.618 64.66-114.025 61.721-114.401 59.532-114.025 58.074-112.851 57.393-112.308 56.995-111.588 56.891-110.682 56.798-109.784 57.04-108.94 57.613-108.113 58.493-106.896 60.166-105.259 62.625-103.227L69.994-97.146C71.778-95.715 72.813-94.766 73.137-94.326 73.284-94.132 73.348-93.897 73.299-93.665 73.288-93.425 73.188-93.247 73.049-93.127 72.744-92.89 72.321-92.76 71.856-92.76 71.366-92.76 69.994-93.108 67.789-93.806L67.476-92.721C69.951-91.695 72.129-91.214 74.021-91.325 75.484-91.374 76.603-91.721 77.405-92.351 77.967-92.799 78.27-93.35 78.352-94.006 78.418-94.654 78.243-95.306 77.799-95.91 77.178-96.789 75.732-98.15 73.526-99.954L65.752-106.262C63.624-107.961 62.359-109.109 61.951-109.682 61.721-109.992 61.636-110.319 61.69-110.644 61.739-110.995 61.917-111.293 62.22-111.533 62.722-111.934 63.559-112.167 64.725-112.239 65.896-112.338 67.808-111.966 70.453-111.133 73.101-110.319 75.433-109.439 77.457-108.478 79.481-107.544 82.242-105.652 85.734-102.861L87.573-101.374 90.952-104.062ZM108.773-96.605 109.797-95.851C112.891-99.361 114.674-103.603 115.149-108.575 115.616-113.557 114.71-118.301 112.416-122.843 109.741-128.186 105.959-131.937 101.078-134.11 96.193-136.3 91.747-136.249 87.728-133.997 85.459-132.717 84.036-130.876 83.499-128.47 82.952-126.085 83.318-123.617 84.596-121.08 86.708-116.859 90.162-113.891 94.946-112.18 99.737-110.472 103.653-110.472 106.685-112.177 108.397-113.148 109.554-114.667 110.17-116.789 113.739-108.848 113.278-102.114 108.773-96.605ZM105.925-113.594C103.524-112.261 100.389-112.918 96.433-115.564 92.49-118.208 89.595-121.374 87.728-125.073 86.812-126.908 86.498-128.506 86.812-129.927 87.121-131.319 87.935-132.398 89.259-133.138 91.41-134.358 94.444-133.657 98.393-131.041 102.328-128.436 105.266-125.201 107.173-121.374 109.036-117.697 108.609-115.108 105.925-113.594ZM140.517-126.382 130.782-142.469C129.326-144.876 128.503-146.416 128.308-147.086 128.2-147.447 128.188-147.726 128.258-147.932 128.341-148.137 128.452-148.277 128.653-148.336 128.958-148.433 129.326-148.399 129.786-148.199 130.238-148.024 131.512-147.086 133.606-145.464L134.207-146.387C132.077-148.386 130.125-149.754 128.318-150.422 127.112-150.863 126.076-150.913 125.155-150.621 124.455-150.397 123.978-150.019 123.729-149.452 123.454-148.885 123.417-148.258 123.609-147.577 123.807-146.888 124.182-146.066 124.732-145.038 125.436-143.689 127.166-140.77 129.913-136.324 125.303-140.825 121.671-143.816 119.039-145.221 116.409-146.659 114.201-147.086 112.472-146.527 111.651-146.258 111.037-145.71 110.649-144.909 110.259-144.095 110.222-143.205 110.488-142.226 110.923-140.77 111.967-138.629 113.624-135.835L118.579-127.46C119.79-125.467 120.459-124.207 120.617-123.673 120.679-123.42 120.679-123.205 120.563-122.986 120.459-122.77 120.33-122.629 120.147-122.583 119.786-122.453 119.349-122.486 118.891-122.662 118.444-122.833 117.274-123.658 115.428-125.109L114.776-124.207C116.765-122.343 118.669-121.128 120.48-120.522 121.856-120.055 123.038-119.981 123.985-120.272 124.656-120.503 125.126-120.9 125.422-121.474 125.688-122.076 125.723-122.749 125.508-123.465 125.203-124.533 124.303-126.335 122.803-128.813L117.543-137.544C116.092-139.923 115.272-141.451 115.069-142.148 114.961-142.521 114.98-142.853 115.149-143.152 115.304-143.453 115.561-143.658 115.927-143.779 116.529-143.961 117.385-143.898 118.515-143.552 119.643-143.198 121.318-142.157 123.542-140.444 125.764-138.715 127.661-137.043 129.257-135.407 130.845-133.788 132.841-131.015 135.219-127.119L136.47-125.073 140.517-126.382ZM187.73-148.788C185.931-151.439 184.074-153.454 182.16-154.766 180.256-156.058 178.198-156.792 176.001-156.9 173.374-157.053 171.269-156.351 169.718-154.785 168.181-153.224 167.304-151.046 167.17-148.277 167.025-145.146 167.659-141.991 169.099-138.877 170.537-135.73 172.552-133.138 175.132-131.107 177.737-129.048 180.306-127.96 182.896-127.812 184.923-127.705 186.461-128.102 187.509-128.966 188.553-129.831 189.124-130.963 189.167-132.327 189.244-133.582 188.952-134.703 188.282-135.648 187.799-136.371 187.17-136.761 186.408-136.804 185.839-136.831 185.355-136.644 184.933-136.267 184.539-135.875 184.329-135.358 184.299-134.76 184.285-134.36 184.348-133.997 184.452-133.657 184.569-133.329 184.85-132.917 185.262-132.427 185.674-131.937 185.916-131.589 186.016-131.385 186.077-131.185 186.12-130.954 186.107-130.718 186.078-130.294 185.9-129.943 185.528-129.677 184.969-129.303 184.206-129.129 183.216-129.187 181.383-129.291 179.628-130.108 177.916-131.625 176.191-133.125 174.771-135.228 173.641-137.914 172.28-141.172 171.677-144.359 171.832-147.518 171.933-149.625 172.559-151.243 173.695-152.418 174.826-153.587 176.325-154.101 178.188-154.016 179.614-153.921 181.006-153.454 182.379-152.592 183.738-151.711 185.251-150.183 186.88-148.026L187.73-148.788ZM198.266-125.542 198.655-139.976C199.293-136.355 199.93-133.573 200.555-131.659 201.544-128.663 202.687-126.353 203.963-124.754 204.718-123.813 205.605-123.174 206.652-122.843 207.547-122.566 208.367-122.629 209.125-123.063 209.891-123.517 210.431-124.227 210.726-125.214 210.99-126.166 211.154-127.504 211.2-129.187L211.457-137.292C212.642-130.344 214.15-125.255 216.054-121.999 217.109-120.188 218.348-119.059 219.75-118.609 220.564-118.336 221.33-118.44 222.017-118.891 222.732-119.334 223.279-120.214 223.652-121.518 223.989-122.662 224.172-123.92 224.223-125.297L224.615-137.736C224.684-140.444 224.768-141.911 224.856-142.198 224.923-142.469 225.077-142.678 225.297-142.84 225.445-142.936 225.596-142.947 225.786-142.891 225.955-142.84 226.214-142.562 226.557-142.04 227.331-140.845 227.941-139.395 228.42-137.695L229.476-138.023C229.253-138.969 228.79-140.293 228.052-142.04 227.331-143.764 226.628-145.012 225.967-145.76 225.315-146.527 224.646-147.002 223.969-147.231 223.353-147.411 222.753-147.357 222.204-147.022 221.655-146.683 221.272-146.168 221.085-145.482 220.804-144.527 220.618-142.521 220.522-139.441L220.212-129.17C220.129-126.809 220.06-125.506 220.046-125.261 219.984-124.858 219.915-124.488 219.804-124.159 219.662-123.658 219.453-123.301 219.182-123.089 218.895-122.877 218.601-122.82 218.348-122.901 217.592-123.151 216.922-123.813 216.327-124.954 214.593-128.233 213.318-132.48 212.477-137.669 211.939-141.09 211.713-145.338 211.833-150.375L207.814-151.671 207.211-132.341C207.159-130.243 207.026-128.883 206.841-128.233 206.695-127.705 206.466-127.343 206.196-127.152 205.936-126.95 205.654-126.908 205.372-126.987 204.782-127.179 204.24-127.62 203.714-128.323 202.86-129.423 201.972-131.512 201.01-134.577 200.051-137.646 199.46-140.462 199.198-143.057 199.046-144.286 199.007-148.113 199.037-154.508L195.088-155.786 194.491-135.063 194.424-132.367C194.433-131.958 194.408-131.681 194.351-131.48 194.229-131.059 193.946-130.718 193.494-130.499 193.026-130.28 192.521-130.243 191.972-130.433 191.755-130.499 191.142-130.814 190.153-131.401L189.612-130.375 198.266-125.542ZM251.586-112.596C252.914-115.346 253.56-118.415 253.541-121.831 253.536-125.237 252.724-128.353 251.137-131.196 249.529-134.037 247.637-136.047 245.389-137.242 243.123-138.465 240.906-138.687 238.692-137.845 236.487-137.013 234.765-135.324 233.533-132.759 232.247-130.079 231.634-126.987 231.72-123.524 231.814-120.067 232.671-116.927 234.24-114.077 235.837-111.223 237.706-109.225 239.914-108.043 242.098-106.872 244.276-106.686 246.468-107.544 248.645-108.347 250.356-110.044 251.586-112.596ZM246.53-112.918C245.703-111.211 244.699-110.112 243.523-109.613 242.338-109.109 241.133-109.182 239.945-109.822 237.499-111.133 236.196-114.281 236.009-119.241 235.828-124.188 236.646-128.569 238.496-132.398 239.331-134.135 240.364-135.275 241.635-135.795 242.873-136.3 244.097-136.225 245.313-135.588 247.653-134.313 248.915-131.216 249.108-126.272 249.307-121.354 248.454-116.887 246.53-112.918ZM251.114-103.49 256.523-96.196 257.433-95.418 271.998-111.934 268.694-86.366 272.195-83.277 280.539-102.261C281.391-104.224 281.888-105.296 282.027-105.485 282.435-105.993 282.856-106.06 283.251-105.696 283.936-105.087 284.102-103.158 283.784-99.893L284.771-99.796C285.106-101.988 285.074-104.087 284.669-106.142 284.274-108.174 283.713-109.516 282.987-110.17 281.797-111.211 280.624-111 279.448-109.516 278.919-108.851 278.178-107.435 277.21-105.229L270.238-89.309 273.972-118.176 273.002-119.013 256.116-100.358C261.329-112.548 264.044-119.954 264.246-122.566 264.461-125.194 263.909-127.076 262.606-128.223 261.312-129.368 260.192-129.364 259.254-128.186 258.842-127.649 258.656-127.058 258.703-126.401 258.752-125.736 258.993-125.201 259.451-124.791 259.839-124.436 260.52-124.227 261.439-124.159 261.901-124.131 262.212-124.023 262.42-123.833 262.756-123.54 262.834-122.629 262.618-121.11 262.414-119.558 261.25-116.204 259.197-111.019 257.131-105.823 255.857-102.938 255.377-102.334 254.803-101.612 254.054-101.661 253.124-102.477 252.626-102.922 252.061-103.603 251.409-104.534L251.114-103.49ZM290.574-61.364 301.636-79.617 303.212-82.003C303.361-82.22 303.5-82.371 303.633-82.506 303.859-82.723 304.13-82.842 304.413-82.875 304.66-82.875 304.837-82.783 304.99-82.608 305.152-82.427 305.254-82.066 305.294-81.558 305.344-80.578 305.122-78.994 304.615-76.791L305.769-76.526C306.411-78.97 306.672-81.104 306.561-82.925 306.438-84.74 305.992-86.092 305.222-86.994 304.688-87.632 304.13-87.952 303.545-87.973 302.969-87.99 302.371-87.732 301.786-87.155 301.092-86.474 300.288-85.417 299.398-84.008L298.171-82.003C299.019-86.263 299.249-89.67 298.864-92.202 298.583-94.037 297.969-95.512 297.026-96.614 296.122-97.682 294.902-98.186 293.356-98.118 291.83-98.076 290.298-97.309 288.759-95.837 286.458-93.66 284.627-90.644 283.251-86.83 281.895-83 281.367-79.3 281.662-75.682 281.875-72.865 282.612-70.691 283.873-69.187 284.647-68.287 285.502-67.795 286.458-67.629 287.45-67.484 288.583-67.752 289.924-68.472L288.137-65.324 290.574-61.364ZM285.029-70.225C284.251-71.16 283.852-72.574 283.812-74.445 283.784-77.102 284.476-80.173 285.894-83.614 287.329-87.092 289.014-89.739 290.966-91.607 291.948-92.555 292.946-93.027 293.93-93.078 294.927-93.127 295.698-92.823 296.244-92.184 297.61-90.601 297.917-87.755 297.179-83.664 296.21-78.222 294.095-73.959 290.844-70.861 289.622-69.684 288.518-69.077 287.555-69.047 286.594-68.988 285.761-69.381 285.029-70.225ZM297.61-50.852 307.031-61.275C305.205-58.142 303.918-55.632 303.183-53.754 302.019-50.852 301.413-48.325 301.334-46.218 301.3-44.99 301.575-43.882 302.136-42.901 302.595-42.064 303.276-41.543 304.114-41.317 304.973-41.097 305.814-41.251 306.64-41.784 307.485-42.304 308.422-43.18 309.523-44.397L314.873-50.233C311.324-44.251 309.227-39.386 308.582-35.638 308.223-33.534 308.436-31.829 309.182-30.488 309.627-29.72 310.237-29.238 311.045-29.094 311.854-28.924 312.83-29.192 313.909-29.89 314.877-30.506 315.824-31.312 316.728-32.303L324.908-41.262C326.669-43.226 327.679-44.264 327.909-44.417 328.141-44.573 328.378-44.612 328.633-44.573 328.814-44.547 328.951-44.446 329.039-44.272 329.136-44.106 329.138-43.715 329.076-43.088 328.875-41.661 328.432-40.152 327.704-38.544L328.712-38.048C329.136-38.897 329.613-40.205 330.201-42.02 330.737-43.839 331.009-45.263 330.994-46.28 330.988-47.31 330.79-48.137 330.426-48.782 330.098-49.365 329.613-49.732 329.004-49.871 328.366-50 327.779-49.905 327.185-49.513 326.384-49.015 324.965-47.648 322.944-45.426L316.2-38.026C314.654-36.319 313.789-35.394 313.607-35.233 313.311-34.986 313.014-34.759 312.734-34.568 312.313-34.296 311.931-34.181 311.591-34.22 311.236-34.29 311.005-34.434 310.848-34.692 310.457-35.394 310.383-36.369 310.647-37.622 311.451-41.283 313.19-45.361 315.851-49.791 317.614-52.739 320.142-56.034 323.418-59.698L321.244-63.503 308.566-49.565C307.197-48.049 306.236-47.128 305.689-46.783 305.236-46.494 304.849-46.373 304.525-46.43 304.194-46.48 303.956-46.609 303.802-46.889 303.483-47.438 303.35-48.179 303.405-49.051 303.479-50.481 304.13-52.652 305.358-55.615 306.594-58.556 307.932-61.097 309.394-63.207 310.063-64.203 312.447-67.078 316.507-71.819L314.403-75.571 300.836-60.583 299.07-58.632C298.822-58.321 298.614-58.113 298.467-58.011 298.098-57.79 297.684-57.733 297.187-57.911 296.706-58.051 296.307-58.384 296.009-58.915 295.898-59.125 295.647-59.789 295.296-60.931L294.215-60.554 297.61-50.852ZM331.151-3.683C333.819-4.95 336.177-6.898 338.177-9.548 340.193-12.212 341.423-15.173 341.885-18.439 342.324-21.711 342.061-24.544 341.042-26.963 340.006-29.423 338.384-31.064 336.177-31.884 333.95-32.709 331.62-32.522 329.138-31.364 326.529-30.131 324.228-28.149 322.227-25.396 320.241-22.634 319.019-19.638 318.544-16.372 318.1-13.103 318.368-10.283 319.365-7.926 320.372-5.552 321.961-3.945 324.161-3.146 326.332-2.338 328.664-2.518 331.151-3.683ZM327.426-7.304C325.771-6.52 324.344-6.333 323.107-6.716 321.883-7.137 320.997-7.975 320.468-9.263 319.345-11.918 320.191-15.213 323.009-19.21 325.811-23.176 329.055-26.04 332.77-27.781 334.458-28.563 335.947-28.77 337.211-28.331 338.508-27.894 339.422-27.019 339.974-25.731 341.028-23.176 340.17-19.923 337.373-15.953 334.591-11.985 331.258-9.101 327.426-7.304ZM326.248 7.995 331.598 24.417 348.293 12.212C349.574 11.277 350.448 10.72 350.9 10.56 351.523 10.329 351.923 10.487 352.103 11.023 352.264 11.501 352.167 12.073 351.812 12.816 351.462 13.525 350.721 14.68 349.607 16.272L350.519 16.998C352.092 14.739 353.142 12.854 353.698 11.35 354.285 9.833 354.342 8.429 353.914 7.126 353.392 5.538 352.332 5.024 350.711 5.623 349.88 5.907 348.311 6.912 346.031 8.614L331.725 19.066 330.621 15.734C330.201 14.373 329.974 13.49 330.025 13.096 330.061 12.678 330.367 12.25 330.894 11.727 331.452 11.245 332.847 10.154 335.119 8.469 341.624 3.669 345.723 .203 347.435-1.861 349.132-3.968 349.688-5.856 349.132-7.575 348.529-9.406 347.507-10.062 346.075-9.548 345.489-9.333 345.051-8.961 344.758-8.449 344.466-7.931 344.413-7.388 344.6-6.786 344.79-6.231 345.23-5.734 345.92-5.292 346.364-5.034 346.627-4.738 346.741-4.432 346.916-3.845 346.641-3.061 345.895-2.07 345.156-1.056 342.56 1.153 338.143 4.574 333.723 7.995 331.117 9.833 330.367 10.112 329.189 10.531 328.141 9.622 327.202 7.332L326.248 7.995ZM346.501 51.999C349.345 51.351 352.046 49.957 354.524 47.814 357.009 45.653 358.786 43.033 359.889 39.929 360.978 36.825 361.268 33.999 360.744 31.413 360.217 28.765 358.949 26.815 356.936 25.525 354.944 24.233 352.629 23.895 349.971 24.485 347.18 25.116 344.532 26.556 342.047 28.811 339.558 31.074 337.761 33.745 336.676 36.838 335.575 39.929 335.294 42.735 335.795 45.278 336.309 47.816 337.567 49.713 339.558 50.981 341.534 52.271 343.846 52.599 346.501 51.999ZM343.552 47.667C341.791 48.064 340.35 47.936 339.232 47.267 338.113 46.6 337.41 45.583 337.132 44.185 336.56 41.358 338.046 38.315 341.576 35.044 345.108 31.763 348.851 29.682 352.815 28.789 354.627 28.371 356.107 28.539 357.275 29.233 358.448 29.949 359.167 31.001 359.465 32.404 360.013 35.107 358.506 38.096 354.989 41.36 351.489 44.645 347.678 46.732 343.552 47.667ZM343.652 62.067 342.805 61.288C340.414 64.943 339.466 68.547 339.944 72.136 340.283 74.722 341.051 76.62 342.223 77.791 343.41 78.964 344.745 79.438 346.279 79.221 347.394 79.045 348.426 78.479 349.394 77.502 350.331 76.513 351.41 73.799 352.634 69.333 353.82 64.973 354.976 62.17 356.081 60.954 357.198 59.706 358.285 59.017 359.321 58.874 360.439 58.702 361.507 59.017 362.48 59.792 363.429 60.556 364.065 61.896 364.321 63.798 364.674 66.447 363.792 69.567 361.66 73.117L362.509 73.795C365.363 69.923 366.487 65.653 365.862 60.997 365.51 58.366 364.764 56.471 363.601 55.284 362.432 54.098 361.088 53.632 359.571 53.858 358.141 54.081 356.862 54.825 355.702 56.07 354.563 57.326 353.47 60.295 352.432 64.915 351.607 68.617 350.686 71.074 349.688 72.338 348.688 73.584 347.471 74.316 346.06 74.536 344.937 74.701 343.978 74.405 343.237 73.629 342.459 72.835 341.983 71.689 341.782 70.208 341.451 67.751 342.065 65.047 343.652 62.067ZM330.157 94.641C330.201 95.466 330.505 96.132 331.102 96.669 331.688 97.215 332.399 97.474 333.214 97.414 333.997 97.377 334.674 97.049 335.209 96.434 335.773 95.816 336.013 95.113 335.968 94.299 335.947 93.508 335.615 92.833 335 92.284 334.392 91.735 333.723 91.487 332.919 91.521 332.101 91.573 331.417 91.886 330.894 92.494 330.359 93.105 330.098 93.805 330.157 94.641ZM341.742 94.376 361.895 87.423C363.252 86.944 364.076 86.692 364.35 86.692 364.674 86.672 364.919 86.744 365.135 86.917 365.317 87.117 365.434 87.316 365.45 87.581 365.46 87.867 365.317 88.228 365.028 88.653 364.221 89.824 363.026 91.022 361.459 92.254L362.174 93.233C364.142 91.803 365.762 90.127 367.054 88.237 368.027 86.863 368.473 85.553 368.409 84.336 368.37 83.513 368.1 82.895 367.604 82.406 367.11 81.931 366.491 81.698 365.776 81.738 365.06 81.775 363.872 82.085 362.223 82.673L349.334 87.228C347.236 87.959 345.91 88.37 345.373 88.391 344.928 88.43 344.574 88.299 344.29 87.978 344.011 87.701 343.846 87.285 343.823 86.759 343.806 86.331 343.862 85.427 344.011 84.054L342.863 84.119 341.742 94.376ZM342.176 113.652 362.554 107.421C363.927 107.019 364.753 106.802 365.013 106.802 365.343 106.788 365.582 106.869 365.791 107.064 365.985 107.249 366.088 107.458 366.088 107.73 366.088 108.01 365.948 108.37 365.637 108.785 364.785 109.932 363.559 111.087 361.968 112.256L362.647 113.265C364.638 111.899 366.322 110.282 367.67 108.449 368.699 107.092 369.18 105.805 369.16 104.594 369.135 103.785 368.903 103.145 368.417 102.648 367.942 102.137 367.327 101.901 366.606 101.904 365.877 101.915 364.702 102.192 363.026 102.703L350.013 106.773C347.885 107.438 346.527 107.798 345.996 107.81 345.577 107.814 345.227 107.66 344.937 107.349 344.648 107.064 344.496 106.636 344.496 106.122 344.495 105.686 344.586 104.776 344.79 103.424L343.652 103.439 342.176 113.652ZM329.561 119.005C329.578 119.877 329.888 120.641 330.514 121.222 331.142 121.831 331.897 122.133 332.77 122.1 333.624 122.092 334.353 121.769 334.946 121.146 335.554 120.529 335.848 119.774 335.836 118.895 335.828 118.024 335.505 117.287 334.893 116.676 334.256 116.074 333.537 115.775 332.665 115.796 331.791 115.8 331.044 116.129 330.426 116.742 329.834 117.365 329.536 118.137 329.561 119.005ZM329.382 108.507C329.408 109.404 329.725 110.15 330.34 110.758 330.969 111.353 331.714 111.642 332.603 111.63 333.46 111.62 334.184 111.305 334.782 110.686 335.382 110.031 335.679 109.283 335.669 108.408 335.638 107.54 335.323 106.802 334.716 106.18 334.1 105.587 333.354 105.277 332.491 105.304 331.606 105.311 330.862 105.628 330.271 106.256 329.656 106.9 329.374 107.65 329.382 108.507" fill="#3d3f96"/>
</svg>
