<?xml version="1.0"?>
<svg xmlns="http://www.w3.org/2000/svg" height="512px" viewBox="-96 0 511 511.997" width="512px"><g><path d="m295.804688 28.5625c-14.9375-18.417969-35.253907-28.5625-57.207032-28.5625-31.988281 0-54.648437 11.613281-76.5625 22.84375-3.277344 1.683594-6.425781 3.292969-9.574218 4.855469-1.320313-.957031-2.652344-1.933594-4.007813-2.929688-15.789063-11.613281-33.683594-24.769531-66.898437-24.769531-21.953126 0-42.269532 10.144531-57.207032 28.5625-15.601562 19.238281-23.847656 45.46875-23.847656 75.859375 0 38.582031 16.054688 70.824219 31.585938 102.011719 3.714843 7.464844 7.5625 15.183594 11.125 22.867187 5.113281 11.039063 16.316406 18.167969 28.539062 18.167969h.894531v8.53125c0 12.976562 10.558594 23.53125 23.53125 23.53125h8.53125v32.949219l-1.574219.222656c-4.101562.585937-6.953124 4.386719-6.367187 8.484375.535156 3.742188 3.746094 6.441406 7.417969 6.441406.171875 0 .351562-.023437.523437-.035156v16.949219l-1.574219.226562c-4.101562.582031-6.953124 4.382813-6.367187 8.484375.535156 3.738282 3.746094 6.4375 7.417969 6.4375.171875 0 .351562-.023437.523437-.035156v16.949219l-1.574219.226562c-4.101562.585938-6.953124 4.386719-6.367187 8.484375.535156 3.742188 3.746094 6.441406 7.417969 6.441406.171875 0 .351562-.027343.523437-.039062v16.953125l-1.574219.222656c-4.101562.585938-6.953124 4.386719-6.367187 8.488281.535156 3.738282 3.746094 6.4375 7.417969 6.4375.171875 0 .351562-.023437.523437-.035156v16.949219l-1.574219.226563c-4.101562.585937-6.953124 4.386718-6.367187 8.484374.535156 3.742188 3.746094 6.441407 7.417969 6.441407.171875 0 .351562-.027344.523437-.039063v4.128906c0 4.261719 1.160157 8.449219 3.355469 12.105469l19.429688 32.382813c2.789062 4.644531 7.886718 7.53125 13.304687 7.53125h39.019531c5.417969 0 10.515625-2.886719 13.304688-7.53125l19.429687-32.382813c2.191407-3.65625 3.351563-7.84375 3.351563-12.105469v-19.972656l1.578125-.226562c4.101562-.585938 6.949219-4.386719 6.363281-8.484375-.558594-3.917969-4.054688-6.6875-7.941406-6.414063v-16.941406l1.578125-.222656c4.101562-.585938 6.949219-4.386719 6.363281-8.488282-.558594-3.917968-4.054688-6.6875-7.941406-6.414062v-16.9375l1.578125-.226562c4.101562-.585938 6.949219-4.382813 6.363281-8.484376-.558594-3.917968-4.054688-6.6875-7.941406-6.414062v-16.941406l1.578125-.222656c4.101562-.585938 6.949219-4.386719 6.363281-8.484376-.558594-3.917968-4.054688-6.6875-7.941406-6.414062v-16.941406l1.578125-.226563c4.101562-.585937 6.949219-4.382812 6.363281-8.484375-.558594-3.917968-4.054688-6.6875-7.941406-6.414062v-17.089844h8.53125c12.976562 0 23.535156-10.554688 23.535156-23.53125v-8.53125h.878906c12.242188 0 23.453125-7.152344 28.5625-18.214844 3.457032-7.492187 7.175782-15.015625 10.765625-22.292968 15.476563-31.34375 31.480469-63.753907 31.480469-102.539063 0-30.390625-8.246094-56.621094-23.851562-75.859375zm-94.902344 431.417969c0 1.542969-.421875 3.0625-1.21875 4.386719l-19.425782 32.382812c-.09375.15625-.261718.25-.441406.25h-39.023437c-.179688 0-.347657-.097656-.441407-.25l-19.429687-32.382812c-.792969-1.324219-1.214844-2.84375-1.214844-4.390626v-6.230468l81.195313-11.597656zm0-65.050781-41.660156 5.953124c-4.101563.585938-6.953126 4.386719-6.367188 8.484376.535156 3.742187 3.746094 6.441406 7.417969 6.441406.351562 0 .710937-.023438 1.070312-.078125l39.539063-5.644531v16.910156l-81.195313 11.601562v-16.914062l9.59375-1.371094c4.101563-.585938 6.953125-4.386719 6.367188-8.484375-.585938-4.101563-4.390625-6.953125-8.488281-6.363281l-7.472657 1.066406v-16.914062l81.195313-11.597657zm0-32.0625-81.195313 11.597656v-16.910156l81.195313-11.601563zm0-32.066407-81.195313 11.601563v-16.914063l81.195313-11.597656zm0-32.0625-81.195313 11.597657v-30.804688h81.195313zm73.824218-98.417969c-3.636718 7.363282-7.394531 14.976563-10.9375 22.644532-2.664062 5.773437-8.53125 9.503906-14.945312 9.503906h-24.414062c-4.144532 0-7.5 3.355469-7.5 7.5 0 4.140625 3.355468 7.5 7.5 7.5h8.535156v8.53125c0 4.703125-3.828125 8.53125-8.53125 8.53125h-128.257813c-4.707031 0-8.53125-3.828125-8.53125-8.53125v-8.53125h104.726563c4.140625 0 7.5-3.359375 7.5-7.5 0-4.144531-3.359375-7.5-7.5-7.5h-120.621094c-6.402344 0-12.265625-3.71875-14.929688-9.476562-3.652343-7.875-7.542968-15.6875-11.308593-23.246094-15.433594-30.996094-30.015625-60.273438-30.015625-95.324219 0-58.707031 33.230468-89.421875 66.058594-89.421875 28.292968 0 43.402343 11.109375 58.011718 21.851562 10.175782 7.484376 20.695313 15.21875 34.746094 18.222657 4.050781.867187 8.035156-1.714844 8.902344-5.765625.867187-4.050782-1.714844-8.035156-5.765625-8.902344-3.585938-.765625-6.894531-1.953125-10.070313-3.445312.496094-.257813 1.003906-.515626 1.5-.765626 20.328125-10.421874 41.351563-21.195312 69.71875-21.195312 32.824219 0 66.058594 30.714844 66.058594 89.421875 0 35.285156-14.539062 64.726563-29.929688 95.898437zm0 0" data-original="#000000" class="active-path" data-old_color="#000000" fill="#FFFFFF"/></g> </svg>
